<?xml version="1.0" encoding="UTF-8" standalone="no"?>
<!-- Generator: Adobe Illustrator 24.0.0, SVG Export Plug-In . SVG Version: 6.00 Build 0)  -->

<svg
   version="1.1"
   id="logo"
   x="0px"
   y="0px"
   viewBox="0 0 30 28.234297"
   xml:space="preserve"
   sodipodi:docname="1inch.svg"
   width="30"
   height="28.234297"
   inkscape:version="1.2 (dc2aeda, 2022-05-15)"
   xmlns:inkscape="http://www.inkscape.org/namespaces/inkscape"
   xmlns:sodipodi="http://sodipodi.sourceforge.net/DTD/sodipodi-0.dtd"
   xmlns="http://www.w3.org/2000/svg"
   xmlns:svg="http://www.w3.org/2000/svg"><defs
   id="defs900" /><sodipodi:namedview
   id="namedview898"
   pagecolor="#505050"
   bordercolor="#eeeeee"
   borderopacity="1"
   inkscape:showpageshadow="0"
   inkscape:pageopacity="0"
   inkscape:pagecheckerboard="0"
   inkscape:deskcolor="#505050"
   showgrid="false"
   showborder="false"
   inkscape:zoom="0.16007471"
   inkscape:cx="-843.35622"
   inkscape:cy="462.28415"
   inkscape:window-width="1309"
   inkscape:window-height="984"
   inkscape:window-x="0"
   inkscape:window-y="38"
   inkscape:window-maximized="0"
   inkscape:current-layer="logo" />
<style
   type="text/css"
   id="style867">
	.st0{fill:#FFFFFF;}
	.st1{fill:#94A6C3;}
	.st2{fill:#1B314F;}
	.st3{fill:#FFD923;}
	.st4{fill:#D82122;}
</style>
<path
   class="st0"
   d="M 168.2,366.5 186.9,226 24.7,113.4 172.9,163.6 207.9,109.9 335.7,30.6 617.4,185.8 632,422.6 506.5,597 l -99.2,15.2 51.3,-93.9 v -90.4 l -37.3,-70.6 -37.9,-25.1 -58.3,60.1 v 63.6 l -45.5,42.6 -57.8,7 -25.6,14.5 -42,-13.4 -17.5,-63 31.5,-44.3 z"
   id="path869" />
<path
   class="st1"
   d="m 427.2,112.2 c -30.9,-6.4 -64.7,-4.7 -64.7,-4.7 0,0 -11.1,51.3 -79.9,64.8 0.5,0 90.9,30.9 144.6,-60.1 z"
   id="path871" />
<path
   class="st1"
   d="m 455.2,577.7 c 37.3,-29.2 65.3,-69.4 78.2,-114.9 0.6,-1.7 5.8,-4.7 9.3,-7 5.8,-3.5 11.7,-6.4 12.8,-11.1 2.3,-13.4 3.5,-27.4 3.5,-41.4 0,-5.2 -5.3,-10.5 -10.5,-15.7 -4.1,-3.5 -8.2,-7.6 -8.2,-10.5 C 534.5,324 510,274.4 470.9,238.3 l -4.1,4.1 c 37.9,35.6 62.4,84 67.7,135.3 0.6,4.7 5.2,9.3 9.9,14 4.1,3.5 8.8,8.8 8.8,11.1 0,13.4 -1.2,26.8 -3.5,40.2 -0.6,2.3 -5.8,4.7 -9.9,7 -5.8,2.9 -11.1,5.8 -12.2,10.5 -14,49.6 -46.1,92.8 -88.7,120.8 7.6,-16.3 31.5,-69.4 44.3,-96.3 l -2.3,-86.3 -74.1,-71.7 -42,5.8 -46.1,74.7 c 0,0 21.6,27.4 -8.8,59.5 -29.7,31.5 -53.1,38.5 -53.1,38.5 l -21.6,-11.7 c 6.4,-8.2 19.3,-20.4 29.2,-28.6 16.9,-14 33.8,-15.2 33.8,-30.3 C 298.9,403.3 265,412 265,412 l -12.3,11.7 -5.2,43.2 -25.6,32.1 -2.9,-0.6 -42,-9.3 c 0,0 25.7,-13.4 29.8,-28.6 4.1,-14.6 -8.2,-63 -8.8,-65.9 0.6,0.6 12.3,10.5 17.5,26.8 9.3,-25.7 21.6,-50.2 25.1,-52.5 3.5,-2.3 50.7,-27.4 50.7,-27.4 l -15.7,41.4 11.7,-6.4 28,-68.8 c 0,0 27.4,-13.4 47.8,-13.4 36.7,-0.6 91,-45.5 66.5,-126 7,2.9 128.3,63.6 149.3,182.6 15.7,91.5 -36.2,177.2 -123.7,226.8 z"
   id="path873" />
<path
   class="st2"
   d="m 316.4,125 c 13.4,-15.8 8.2,-39.1 8.2,-39.1 l -39.1,57.8 c -0.6,0 13.9,0.6 30.9,-18.7 z"
   id="path875" />
<path
   class="st2"
   d="m 185.1,440.6 4.7,-23.3 c 0,0 -19.3,33.8 -21,38.5 -1.8,5.3 1.2,14.6 8.7,14 7.6,-0.6 16.9,-11.7 16.9,-19.8 0,-10.5 -9.3,-9.4 -9.3,-9.4 z"
   id="path877" />
<path
   class="st2"
   d="m 531.6,69.6 c 0,0 29.2,1.2 59.5,4.7 C 522.8,20.6 458.1,4.9 405.6,4.9 333.3,4.9 284.3,34.7 281.3,36.4 L 304.1,0.2 c 0,0 -91,-8.8 -123.1,87.5 -8.2,-20.4 -15.7,-50.2 -15.7,-50.2 0,0 -47.3,41.5 -25.1,110.3 C 85.9,128 8.4,100.5 5.4,100 c -4.1,-0.6 -5.3,1.2 -5.3,1.2 0,0 -1.2,1.7 2.3,4.7 6.5,5.1 129,95.6 155.9,113.1 -5.8,21 -5.8,30.9 0,40.8 8.2,13.4 8.7,20.4 7.6,30.3 -1.2,9.9 -11.7,95.7 -14,106.2 -2.3,10.5 -26.8,47.8 -25.7,58.9 1.2,11.1 16.3,58.3 29.8,63.6 9.9,3.5 34.4,11.1 50.7,11.1 5.8,0 11.1,-1.2 13.4,-3.5 9.9,-8.7 12.8,-10.5 19.8,-10.5 0.6,0 1.2,0 1.7,0 2.9,0 6.4,0.6 10.5,0.6 9.3,0 21.6,-1.8 30.3,-9.9 12.8,-12.8 35,-30.3 42,-38.5 8.8,-11.1 13.4,-26.2 11.1,-41.4 -1.8,-14 5.8,-26.3 14.6,-38.5 11.1,-14.6 31.5,-40.8 31.5,-40.8 40.3,30.2 65.4,76.3 65.4,127.6 0,91 -79.3,164.5 -177.3,164.5 -15.2,0 -29.7,-1.7 -44.3,-5.2 44.9,15.7 82.8,21 113.8,21 65.9,0 100.9,-23.9 100.9,-23.9 0,0 -12.2,15.8 -32.1,33.8 0.6,0 0.6,0 0.6,0 109.1,-15.2 162.2,-105 162.2,-105 0,0 -4.1,29.2 -9.3,49 145.1,-109.1 120.6,-245.6 120,-250.2 1.2,1.7 15.8,19.2 23.3,28.6 C 728.2,147.2 531.6,69.6 531.6,69.6 Z M 308.2,453.5 c -2.3,2.9 -12.2,11.7 -19.2,18.1 -7,6.4 -14.6,12.8 -20.4,18.7 -2.3,2.3 -7,3.5 -14,3.5 -2.3,0 -4.7,0 -6.4,0 -1.2,0 -2.3,0 -3.5,0 -1.2,0 -1.8,0 -2.3,0 -1.8,0 -3.5,0 -5.3,0 8.8,-11.7 34.4,-38.5 43.2,-44.3 10.5,-7 15.8,-14 9.3,-26.2 -6.4,-12.3 -23.3,-9.3 -23.3,-9.3 0,0 9.9,-4.1 18.7,-4.1 -11.1,-2.9 -25.1,0 -31.5,6.4 -7,6.4 -5.8,29.2 -8.7,43.7 -2.9,15.2 -12.8,22.8 -28,36.8 -8.2,7.6 -14,9.9 -18.7,9.9 -9.9,-1.7 -21.6,-4.7 -29.8,-7.6 -5.8,-7.6 -14.6,-32.7 -16.9,-43.2 1.7,-5.8 8.7,-18.1 12.2,-25.1 7,-13.4 11.1,-21 12.3,-28 2.3,-9.9 9.9,-71.2 12.8,-96.8 7.6,9.9 18.1,26.3 15.7,36.8 16.9,-23.9 4.7,-47.3 -1.2,-56.6 -5.2,-9.3 -12.2,-28 -6.4,-47.8 5.8,-19.8 26.8,-74.7 26.8,-74.7 0,0 7,12.3 16.9,9.9 9.9,-2.3 89.8,-122.5 89.8,-122.5 0,0 21.6,47.2 -1.2,81.7 -23.3,34.4 -46.1,40.8 -46.1,40.8 0,0 32.1,5.8 61.8,-15.8 12.2,28.6 23.9,58.3 24.5,62.4 -1.8,4.1 -25.1,60.1 -27.4,63.6 -1.2,1.2 -9.3,3.5 -15.2,4.7 -9.9,2.9 -15.7,4.7 -18.1,6.4 -4.1,3.5 -22.8,54.8 -31.5,79.9 -10.5,2.9 -21,8.8 -28.6,20.4 4.1,-2.9 16.9,-4.7 26.3,-5.8 8.2,-0.6 33.2,12.8 39.7,37.9 0,0.6 0,0.6 0,1.2 1.3,9.2 -1.6,18 -6.3,25 z m -54.8,7 c 5.3,-7.6 4.7,-20.4 5.3,-24.5 0.6,-4.1 1.7,-11.7 6.4,-12.8 4.7,-1.2 15.8,0.6 15.8,8.7 0,7.6 -8.2,9.3 -14,14.6 -4.2,4 -12.4,12.8 -13.5,14 z M 486.1,349 c 5.8,-29.7 6.4,-55.4 4.7,-76.4 22.7,30.3 36.7,67.1 40.8,105 0.6,4.7 5.2,9.3 9.9,14 4.1,3.5 8.8,8.2 8.8,11.1 0,13.4 -1.2,26.8 -3.5,40.3 -0.6,1.7 -5.8,4.7 -9.9,7 -5.8,2.9 -11.1,5.8 -12.2,10.5 -12.8,44.9 -40.3,84.6 -77,112.6 54.2,-56.6 80.4,-150 38.4,-224.1 z m -36.7,229.3 c 37.9,-29.2 67.1,-70 79.9,-116.1 0.6,-1.7 5.8,-4.7 9.3,-7 5.8,-2.9 11.7,-6.4 12.8,-11.1 2.3,-13.4 3.5,-27.4 3.5,-41.4 0,-5.2 -5.3,-10.5 -10.5,-15.7 -2.9,-3.5 -7.6,-7.6 -7.6,-10.5 -4.7,-42.6 -21.6,-82.8 -47.8,-116.1 -11.7,-70 -58.3,-91.6 -59.5,-92.2 1.2,1.8 31.5,45.5 10.5,96.8 -21.6,51.9 -77,43.8 -81.7,44.3 -4.7,0 -22.7,23.3 -45.5,66.5 -2.9,-1.2 -15.2,-4.1 -29.2,-1.7 10.5,-29.2 26.3,-70.6 29.2,-74.1 1.2,-1.2 9.9,-3.5 15.8,-5.2 11.1,-2.9 16.3,-4.7 18.1,-7 1.2,-1.8 7,-15.2 12.8,-29.2 5.3,0 18.7,-1.2 19.8,-1.8 1.2,-1.2 12.3,-29.7 12.3,-33.2 0,-2.9 -22.8,-59.5 -31.5,-81.1 4.1,-4.7 8.2,-10.5 12.2,-16.9 119.6,12.9 213,114.4 213,237.4 0,94.5 -55.4,176.8 -135.9,215.3 z"
   id="path879" />
<path
   class="st2"
   d="m 294.2,263.3 c 11.1,-12.8 5.3,-36.7 -15.2,-40.8 5.3,-12.2 12.8,-36.7 12.8,-36.7 0,0 -59.5,93.3 -64.7,95.1 -5.3,1.8 -10.5,-18.7 -10.5,-18.7 -11.1,42.6 18.7,48.4 22.2,35 16.3,-4.2 44.3,-21.7 55.4,-33.9 z"
   id="path881" />
<path
   class="st3"
   d="m 243.4,286 30.3,-51.9 c 0,0 17.5,8.8 8.7,22.8 -11,16.3 -39,29.1 -39,29.1 z"
   id="path883" />
<path
   class="st4"
   d="m 618.5,526.4 c -8.8,11.7 -18.7,23.9 -30.3,35.6 75.2,-144.7 3.5,-277.1 0.6,-282.3 5.3,5.3 10.5,11.1 15.2,16.3 57.7,64.1 64.7,160.4 14.5,230.4 z"
   id="path885" />
<path
   class="st4"
   d="M 688.5,340.3 C 662.2,269.7 624.9,209.6 542.7,155.4 463.4,102.9 378.2,107 373.5,107.6 c -0.6,0 -1.2,0 -1.2,0 2.9,-1.2 5.8,-1.8 8.7,-2.3 18.1,-5.8 41.4,-10.5 64.8,-13.4 61.9,-8.9 124.3,12.1 166.9,57.1 0.6,0.6 0.6,0.6 1.2,1.2 48.4,51.3 73.5,115.4 74.6,190.1 z"
   id="path887" />
<path
   class="st4"
   d="m 524,51.5 c -86.9,-16.3 -142.9,-8.2 -183.2,7 -1.2,-4.7 -5.3,-14 -8.8,-21.6 -12.1,14.6 -25,32.1 -33.1,43.2 -22.2,15.2 -31.5,29.8 -31.5,29.8 12.8,-43.8 50.2,-76.4 95.7,-84.6 12.8,-2.3 26.8,-3.5 42,-3.5 40.2,0.6 80.4,10.5 118.9,29.7 z"
   id="path889" />
<path
   class="st4"
   d="m 202.6,163.5 c -68.2,-2.3 -45.5,-81.7 -44.3,-86.3 0,0.6 4.6,62.4 44.3,86.3 z"
   id="path891" />
<path
   class="st4"
   d="m 269.7,20.6 c -52.5,31.5 -42,106.7 -42,106.7 C 177.5,51 265.6,22.4 269.7,20.6 Z"
   id="path893" />
<path
   class="st0"
   d="m 183.4,184.5 c 3.5,2.9 7,8.2 2.9,15.8 -2.3,4.1 -5.8,3.5 -11.1,1.2 -7,-3.5 -49,-28 -86.9,-53.1 43.2,15.2 86.9,31.5 93.9,35 0,0 0.6,0.6 1.2,1.1 z"
   id="path895" />
</svg>
