<?xml version="1.0" encoding="UTF-8"?>
<!-- Generator: Adobe Illustrator 24.0.0, SVG Export Plug-In . SVG Version: 6.00 Build 0)  -->
<svg id="logo" width="30" height="28.233" version="1.1" viewBox="0 0 30 28.233" xml:space="preserve" xmlns="http://www.w3.org/2000/svg">
<style type="text/css">
	.st0{fill:#FFFFFF;}
	.st1{fill:#94A6C3;}
	.st2{fill:#1B314F;}
	.st3{fill:#FFD923;}
	.st4{fill:#D82122;}
</style><g stroke-width=".042443">
<path class="st0" d="m7.1431 15.556 0.79368-5.9632-6.8842-4.7791 6.29 2.1306 1.4855-2.2792 5.4242-3.3657 11.956 6.5871 0.61967 10.05-5.3266 7.402-4.2103 0.64513 2.1773-3.9854v-3.8368l-1.5831-2.9965-1.6086-1.0653-2.4744 2.5508v2.6994l-1.9312 1.8081-2.4532 0.2971-1.0865 0.61542-1.7826-0.56874-0.74275-2.6739 1.337-1.8802z"/>
<path class="st1" d="m18.136 4.7625c-1.3115-0.27163-2.746-0.19948-2.746-0.19948s-0.47112 2.1773-3.3912 2.7503c0.0212 0 3.858 1.3115 6.1372-2.5508z"/>
<path class="st1" d="m19.324 24.52c1.5831-1.2393 2.7715-2.9455 3.319-4.8767 0.0255-0.0722 0.24617-0.19948 0.39472-0.2971 0.24616-0.14855 0.49658-0.27164 0.54326-0.47112 0.0976-0.56873 0.14855-1.1629 0.14855-1.7571 0-0.2207-0.22494-0.44565-0.44565-0.66635-0.17401-0.14855-0.34803-0.32257-0.34803-0.44565-0.24617-2.2537-1.286-4.3589-2.9455-5.8911l-0.17402 0.17402c1.6086 1.511 2.6484 3.5652 2.8734 5.7425 0.0255 0.19949 0.22071 0.39472 0.42019 0.5942 0.17401 0.14855 0.37349 0.3735 0.37349 0.47112 0 0.56873-0.0509 1.1375-0.14854 1.7062-0.0255 0.0976-0.24617 0.19948-0.42019 0.2971-0.24617 0.12308-0.47111 0.24617-0.5178 0.44565-0.5942 2.1052-1.9566 3.9387-3.7647 5.1271 0.32257-0.69181 1.337-2.9455 1.8802-4.0872l-0.0976-3.6628-3.145-3.0432-1.7826 0.24617-1.9566 3.1705s0.91677 1.1629-0.3735 2.5254c-1.2606 1.337-2.2537 1.634-2.2537 1.634l-0.91676-0.49658c0.27163-0.34803 0.81914-0.86584 1.2393-1.2139 0.71728-0.5942 1.4346-0.64513 1.4346-1.286 0.0297-1.3412-1.4091-0.97194-1.4091-0.97194l-0.52204 0.49658-0.22071 1.8335-1.0865 1.3624-0.12309-0.0255-1.7826-0.39471s1.0908-0.56874 1.2648-1.2139c0.17401-0.61967-0.34803-2.6739-0.3735-2.797 0.0255 0.0255 0.52205 0.44565 0.74275 1.1375 0.39472-1.0908 0.91677-2.1306 1.0653-2.2282 0.14855-0.0976 2.1518-1.1629 2.1518-1.1629l-0.66635 1.7571 0.49658-0.27164 1.1884-2.9201s1.1629-0.56873 2.0288-0.56873c1.5576-0.0255 3.8623-1.9312 2.8224-5.3478 0.2971 0.12308 5.4454 2.6994 6.3367 7.7501 0.66635 3.8835-1.5364 7.5209-5.2502 9.626z"/>
<path class="st2" d="m13.433 5.3058c0.56874-0.6706 0.34803-1.6595 0.34803-1.6595l-1.6595 2.4532c-0.0255 0 0.58996 0.0255 1.3115-0.79368z"/>
<path class="st2" d="m7.8603 18.701 0.19948-0.98892s-0.81915 1.4346-0.8913 1.634c-0.0764 0.22495 0.0509 0.61966 0.36925 0.5942 0.32257-0.0255 0.71729-0.49658 0.71729-0.84037 0-0.44565-0.39472-0.39896-0.39472-0.39896z"/>
<path class="st2" d="m22.567 2.9544s1.2393 0.0509 2.5254 0.19948c-2.8988-2.2792-5.6449-2.9455-7.8732-2.9455-3.0686 0-5.1483 1.2648-5.2756 1.337l0.9677-1.5364s-3.8623-0.3735-5.2247 3.7137c-0.34803-0.86583-0.66635-2.1306-0.66635-2.1306s-2.0075 1.7614-1.0653 4.6814c-2.3046-0.84037-5.594-2.0076-5.7213-2.0288-0.17401-0.0255-0.22494 0.0509-0.22494 0.0509s-0.0509 0.0722 0.0976 0.19948c0.27587 0.21646 5.4751 4.0575 6.6168 4.8003-0.24617 0.8913-0.24617 1.3115 0 1.7317 0.34803 0.56874 0.36925 0.86584 0.32257 1.286-0.0509 0.42019-0.49658 4.0618-0.5942 4.5074-0.0976 0.44565-1.1375 2.0288-1.0908 2.4999 0.0509 0.47112 0.69182 2.4744 1.2648 2.6994 0.42019 0.14855 1.46 0.47111 2.1518 0.47111 0.24617 0 0.47112-0.0509 0.56874-0.14855 0.42018-0.36925 0.54327-0.44565 0.84037-0.44565h0.0721c0.12308 0 0.27163 0.0255 0.44565 0.0255 0.39471 0 0.91676-0.0764 1.286-0.42019 0.54327-0.54326 1.4855-1.286 1.7826-1.634 0.3735-0.47111 0.56874-1.112 0.47112-1.7571-0.0764-0.5942 0.24617-1.1162 0.61966-1.634 0.47112-0.61966 1.337-1.7317 1.337-1.7317 1.7104 1.2818 2.7758 3.2384 2.7758 5.4157 0 3.8623-3.3657 6.9818-7.5251 6.9818-0.64513 0-1.2606-0.0722-1.8802-0.22071 1.9057 0.66636 3.5143 0.8913 4.83 0.8913 2.797 0 4.2825-1.0144 4.2825-1.0144s-0.5178 0.6706-1.3624 1.4346h0.0255c4.6305-0.64513 6.8842-4.4565 6.8842-4.4565s-0.17402 1.2393-0.39472 2.0797c6.1585-4.6305 5.1186-10.424 5.0931-10.619 0.0509 0.0722 0.6706 0.81491 0.98892 1.2139 0.99316-10.203-7.3511-13.497-7.3511-13.497zm-9.4817 16.294c-0.0976 0.12308-0.5178 0.49658-0.8149 0.76821-0.2971 0.27164-0.61967 0.54327-0.86583 0.79369-0.0976 0.0976-0.2971 0.14855-0.5942 0.14855h-0.27164-0.14855-0.0976-0.22494c0.37349-0.49658 1.46-1.634 1.8335-1.8802 0.44565-0.2971 0.67059-0.5942 0.39471-1.112-0.27163-0.52205-0.98891-0.39472-0.98891-0.39472s0.42018-0.17402 0.79368-0.17402c-0.47112-0.12308-1.0653 0-1.337 0.27164-0.2971 0.27163-0.24617 1.2393-0.36925 1.8548-0.12309 0.64513-0.54327 0.96769-1.1884 1.5619-0.34803 0.32256-0.5942 0.42018-0.79368 0.42018-0.42019-0.0722-0.91677-0.19948-1.2648-0.32257-0.24617-0.32256-0.61967-1.3879-0.71728-1.8335 0.0721-0.24617 0.36925-0.76821 0.5178-1.0653 0.2971-0.56874 0.47111-0.8913 0.52204-1.1884 0.0976-0.42019 0.42019-3.0219 0.54327-4.1085 0.32257 0.42019 0.76822 1.1162 0.66636 1.5619 0.71728-1.0144 0.19948-2.0076-0.0509-2.4023-0.2207-0.39472-0.5178-1.1884-0.27163-2.0288 0.24617-0.84037 1.1375-3.1705 1.1375-3.1705s0.2971 0.52205 0.71728 0.42018c0.42019-0.0976 3.8114-5.1992 3.8114-5.1992s0.91676 2.0033-0.0509 3.4676c-0.98892 1.46-1.9566 1.7317-1.9566 1.7317s1.3624 0.24617 2.623-0.67059c0.5178 1.2139 1.0144 2.4744 1.0398 2.6484-0.0764 0.17401-1.0653 2.5508-1.1629 2.6994-0.0509 0.0509-0.39472 0.14855-0.64514 0.19948-0.42018 0.12309-0.66635 0.19948-0.76821 0.27164-0.17402 0.14855-0.9677 2.3259-1.337 3.3912-0.44565 0.12308-0.8913 0.3735-1.2139 0.86583 0.17401-0.12308 0.71728-0.19948 1.1162-0.24617 0.34803-0.0255 1.4091 0.54327 1.685 1.6086v0.0509c0.0552 0.39047-0.0679 0.76397-0.26739 1.0611zm-2.3259 0.2971c0.22495-0.32257 0.19949-0.86583 0.22495-1.0398 0.0255-0.17401 0.0722-0.49658 0.27164-0.54327 0.19948-0.0509 0.67059 0.0255 0.67059 0.36926 0 0.32256-0.34803 0.39471-0.5942 0.61966-0.17826 0.16977-0.52629 0.54327-0.57298 0.5942zm9.8764-4.7324c0.24617-1.2606 0.27164-2.3513 0.19948-3.2426 0.96345 1.286 1.5576 2.8479 1.7317 4.4565 0.0255 0.19948 0.2207 0.39472 0.42018 0.5942 0.17402 0.14855 0.3735 0.34803 0.3735 0.47112 0 0.56873-0.0509 1.1375-0.14855 1.7104-0.0255 0.0722-0.24617 0.19948-0.42018 0.2971-0.24617 0.12308-0.47112 0.24617-0.51781 0.44565-0.54326 1.9057-1.7104 3.5907-3.2681 4.7791 2.3004-2.4023 3.4124-6.3664 1.6298-9.5114zm-1.5576 9.7321c1.6086-1.2393 2.8479-2.971 3.3912-4.9276 0.0255-0.0722 0.24617-0.19948 0.39472-0.2971 0.24617-0.12308 0.49658-0.27163 0.54327-0.47111 0.0976-0.56874 0.14855-1.1629 0.14855-1.7571 0-0.22071-0.22495-0.44566-0.44565-0.66636-0.12309-0.14855-0.32257-0.32256-0.32257-0.44565-0.19948-1.8081-0.91676-3.5143-2.0288-4.9276-0.49659-2.971-2.4744-3.8878-2.5254-3.9132 0.0509 0.0764 1.337 1.9312 0.44565 4.1085-0.91677 2.2028-3.2681 1.859-3.4676 1.8802-0.19948 0-0.96345 0.98892-1.9312 2.8224-0.12309-0.0509-0.64513-0.17401-1.2393-0.0722 0.44565-1.2393 1.1162-2.9965 1.2393-3.145 0.0509-0.0509 0.42018-0.14855 0.6706-0.22071 0.47111-0.12308 0.69181-0.19948 0.76821-0.2971 0.0509-0.0764 0.2971-0.64513 0.54327-1.2393 0.22495 0 0.79368-0.0509 0.84037-0.0764 0.0509-0.0509 0.52204-1.2606 0.52204-1.4091 0-0.12308-0.96769-2.5253-1.337-3.4421 0.17402-0.19948 0.34804-0.44565 0.51781-0.71728 5.0762 0.54751 9.0403 4.8555 9.0403 10.076 0 4.0108-2.3513 7.5039-5.768 9.138z"/>
<path class="st2" d="m12.491 11.176c0.47112-0.54326 0.22495-1.5576-0.64513-1.7317 0.22495-0.51781 0.54327-1.5577 0.54327-1.5577s-2.5254 3.9599-2.7461 4.0363c-0.22495 0.0764-0.44565-0.79368-0.44565-0.79368-0.47112 1.8081 0.79368 2.0542 0.94223 1.4855 0.69182-0.17826 1.8802-0.92101 2.3513-1.4388z"/>
<path class="st3" d="m10.335 12.139 1.286-2.2028s0.74275 0.3735 0.36926 0.9677c-0.46687 0.69182-1.6553 1.2351-1.6553 1.2351z"/>
<path class="st4" d="m26.255 22.342c-0.3735 0.49658-0.79368 1.0144-1.286 1.511 3.1917-6.1415 0.14855-11.761 0.0255-11.982 0.22495 0.22494 0.44565 0.47111 0.64514 0.69181 2.449 2.7206 2.746 6.8078 0.61542 9.7788z"/>
<path class="st4" d="m29.226 14.444c-1.1162-2.9965-2.6994-5.5473-6.1882-7.8477-3.3657-2.2282-6.9818-2.0542-7.1813-2.0288h-0.0509c0.12308-0.0509 0.24617-0.0764 0.36925-0.0976 0.76822-0.24617 1.7571-0.44565 2.7503-0.56874 2.6272-0.37774 5.2756 0.51356 7.0837 2.4235l0.0509 0.0509c2.0542 2.1773 3.1196 4.8979 3.1662 8.0684z"/>
<path class="st4" d="m22.244 2.1862c-3.6883-0.69181-6.0651-0.34803-7.7755 0.2971-0.0509-0.19948-0.22495-0.5942-0.3735-0.91676-0.51356 0.61966-1.0611 1.3624-1.4049 1.8335-0.94223 0.64513-1.337 1.2648-1.337 1.2648 0.54327-1.859 2.1306-3.2426 4.0618-3.5907 0.54327-0.0976 1.1375-0.14855 1.7826-0.14855 1.7062 0.0255 3.4124 0.44565 5.0464 1.2606z"/>
<path class="st4" d="m8.6031 6.9398c-2.8946-0.0976-1.9312-3.4676-1.8802-3.6628 0 0.0255 0.19524 2.6484 1.8802 3.6628z"/>
<path class="st4" d="m11.451 0.87475c-2.2283 1.337-1.7826 4.5287-1.7826 4.5287-2.1306-3.2384 1.6086-4.4523 1.7826-4.5287z"/>
<path class="st0" d="m7.7882 7.8311c0.14855 0.12308 0.2971 0.34803 0.12308 0.6706-0.0976 0.17401-0.24617 0.14855-0.47111 0.0509-0.2971-0.14855-2.0797-1.1884-3.6883-2.2537 1.8335 0.64513 3.6883 1.337 3.9854 1.4855 0 0 0.0255 0.0255 0.0509 0.0467z"/>
</g></svg>
