<?xml version="1.0" encoding="UTF-8"?>
<svg width="30" height="30" version="1.1" viewBox="0 0 30 30" xmlns="http://www.w3.org/2000/svg">
 <defs>
  <style>.cls-1{fill:#fff;}.cls-2{fill:url(#linear-gradient);}.cls-3,.cls-6{fill:none;stroke-miterlimit:10;}.cls-3{stroke:url(#linear-gradient-2);}.cls-4{fill:url(#linear-gradient-3);}.cls-5{fill:#231f20;}.cls-6{stroke:#e6e7e7;stroke-width:0.75px;}</style>
  <linearGradient id="linear-gradient" x1=".8" x2="33.37" y1="391.24" y2="371.71" gradientTransform="matrix(1,0,0,-1,0,399.87)" gradientUnits="userSpaceOnUse">
   <stop stop-color="#595a5c" offset="0"/>
   <stop stop-color="#231f20" offset="1"/>
  </linearGradient>
  <linearGradient id="linear-gradient-2" x1="2.9" x2="37.82" y1="389.99" y2="369.04" gradientTransform="matrix(1,0,0,-1,0,399.87)" gradientUnits="userSpaceOnUse">
   <stop stop-color="#d2d3d4" offset="0"/>
   <stop stop-color="#e6e7e7" offset="1"/>
  </linearGradient>
  <linearGradient id="linear-gradient-3" x1="9.7" x2="30.54" y1="383.96" y2="371.46" gradientTransform="matrix(1,0,0,-1,0,399.87)" gradientUnits="userSpaceOnUse">
   <stop stop-color="#3db54a" offset=".07"/>
   <stop stop-color="#019547" offset="1"/>
  </linearGradient>
 </defs>
 <g transform="scale(.73674)" data-name="Layer 2">
  <g data-name="Layer 1">
   <g data-name="Layer 2">
    <g data-name="Layer 1-2">
     <circle class="cls-2" cx="20.36" cy="20.36" r="19.86" fill="url(#linear-gradient)"/>
     <circle class="cls-3" cx="20.36" cy="20.36" r="19.86" stroke="url(#linear-gradient-2)"/>
     <polygon class="cls-4" points="10.21 23.08 11.09 22.62 12.08 21.89 12.98 20.73 13.45 19.97 14 18.36 16.33 16.96 17.23 16.48 18.92 15.8 20.55 15.05 21.76 14.29 23.48 12.93 25.49 10.58 25.58 10.75 25.66 11.07 25.66 11.65 25.54 12.24 25.04 13.43 24.27 14.83 23.57 15.8 22.38 17.18 22.82 17.17 24.41 16.8 25.56 16.49 26.66 15.94 30.22 14.3 29.94 14.89 29.25 15.93 28.7 16.6 27.84 17.64 28.42 17.56 29.85 17.76 30.61 17.4 31.92 16.3 32.94 14.14 32.99 16.71 32.72 17.5 32.66 17.74 32.54 17.93 31.4 19.03 32.04 19.17 33.16 20.05 35.79 21.72 36.64 22.24 35.3 26.34 32.13 31.45 27.22 35.02 22.4 36.56 18.06 36.64 18.55 35.44 19.95 35.15 21.52 34.73 23.13 34.08 24.81 33.3 26.46 32.4 28.01 31.21 29.72 29.38 29.81 29.12 29.88 28.93 29.9 28.69 29.89 28.19 29.9 27.67 29.75 27.39 29.51 27.06 28.99 26.39 28.43 25.73 27.65 25.02 27 24.45 25.96 23.85 24.89 23.23 24.11 22.92 23.2 22.53 22.29 22.28 21.96 22.2 21.97 22.01 22.25 21.8 22.76 21.54 23.56 21.3 25.23 21.32 25.95 21.53 27.75 22.25 28.78 22.87 30.23 23.79 30.84 24.21 32.12 25.4 31.9 24.97 31.52 24.55 30.93 23.88 30.32 23.31 29.26 22.36 28.48 21.89 27.49 21.39 27.06 21.14 26.11 20.88 25.18 20.64 24.49 20.55 23.79 20.53 23.06 20.44 22.47 20.51 21.98 20.63 21.76 20.68 21.5 20.93 21.2 21.21 21.02 21.5 20.97 21.83 20.97 22.22 21.09 22.56 21.34 22.98 21.77 23.53 22.36 24.2 22.95 24.8 22.14 24.63 21.46 24.5 20.73 24.31 20.07 24.22 19.61 24.17 18.91 24.16 18.31 24.33 17.63 24.72 17.17 25.06 17.02 25.34 15.88 25.25 14.36 25.23 13.64 25.36 13.36 25.48 13.06 25.69 12.75 25.88 12.57 26.04 12.31 26.35 12.2 26.59 12.13 26.82 12.1 26.94 11.34 26.89 10.78 26.87 10.13 26.62 9.51 26.25 9.18 25.98 8.79 25.67 8.42 25.25 8.17 24.85 7.92 24.41 7.69 23.92 7.53 23.54 7.42 23.37 7.53 23.37 8.26 23.37 9.2 23.37" fill="url(#linear-gradient-3)"/>
     <polygon class="cls-5" points="16.25 19.14 16.74 18.45 17.08 18 17.08 19.38 16.72 20.03 16.1 20.07 15.59 20.28 15.49 20.3 15.2 20.68 15.08 20.82 14.45 20.76 15.22 19.56 15.79 19.46"/>
     <circle class="cls-6" cx="20.17" cy="20.17" r="16.47"/>
    </g>
   </g>
  </g>
 </g>
</svg>
