<svg width="233" height="17" viewBox="0 0 233 17" fill="none" xmlns="http://www.w3.org/2000/svg">
<path d="M22.4854 8.06217C21.4918 7.08594 20.2976 6.59805 18.9025 6.59805H5.07305C4.8162 6.59805 4.59585 6.50835 4.41155 6.32851C4.22725 6.14912 4.13532 5.93032 4.13532 5.6721V4.54457C4.13532 4.29813 4.22725 4.08476 4.41155 3.90492C4.59585 3.72553 4.8162 3.63538 5.07305 3.63538H22.904C22.9486 3.63538 22.9847 3.62134 23.0126 3.59325C23.0405 3.56562 23.0545 3.53436 23.0545 3.50084V0.134543C23.0545 0.0896954 23.0405 0.0561729 23.0126 0.0335225C22.9847 0.0113252 22.9482 0 22.904 0H5.07305C3.66668 0 2.46939 0.488342 1.48163 1.46457C0.493877 2.4408 0 3.61862 0 4.99893V5.21774C0 6.60937 0.493877 7.79308 1.48163 8.76931C2.46939 9.74554 3.66668 10.2334 5.07305 10.2334H18.9025C19.1481 10.2334 19.363 10.3204 19.5469 10.4944C19.7312 10.6683 19.8231 10.8844 19.8231 11.1426V12.2701C19.8231 12.5284 19.7312 12.7444 19.5469 12.9184C19.3626 13.0924 19.1476 13.1793 18.9025 13.1793H1.0549C1.02155 13.1793 0.990458 13.1934 0.96297 13.2215C0.935032 13.2495 0.921063 13.2862 0.921063 13.3311V16.6974C0.921063 16.7309 0.935032 16.7622 0.96297 16.7898C0.990908 16.8179 1.02155 16.8319 1.0549 16.8319H18.9025C20.2976 16.8319 21.4918 16.3413 22.4854 15.3592C23.4785 14.3775 23.9756 13.1965 23.9756 11.8162V11.597C23.9751 10.2167 23.4785 9.0384 22.4854 8.06217Z" fill="#00D1FF"/>
<path d="M52.5092 0H48.6416C48.6082 0 48.5771 0.0113252 48.5497 0.0335225C48.5217 0.0561729 48.5077 0.0896954 48.5077 0.134543V4.40957C48.5077 4.77968 48.3176 5.06054 47.9386 5.25126L40.2204 8.4658L32.5023 5.25126C32.1228 5.06054 31.9331 4.78013 31.9331 4.40957V0.134543C31.9331 0.0896954 31.9219 0.0561729 31.8998 0.0335225C31.8768 0.0113252 31.8435 0 31.7988 0H27.9312C27.8979 0 27.8668 0.0113252 27.8393 0.0335225C27.8113 0.0561729 27.7974 0.0896954 27.7974 0.134543V5.03246C27.7974 5.76225 27.9983 6.42953 28.4003 7.0352C28.8022 7.64132 29.3488 8.0898 30.041 8.38154L38.1444 11.7981V16.6797C38.1444 16.7246 38.1584 16.7613 38.1863 16.7893C38.2143 16.8174 38.2503 16.8315 38.295 16.8315H42.1626C42.1959 16.8315 42.2266 16.8174 42.2545 16.7893C42.2825 16.7613 42.2964 16.725 42.2964 16.6797V11.7986L50.3999 8.39875C51.0916 8.09569 51.6391 7.64404 52.0406 7.04381C52.4425 6.44357 52.6431 5.77901 52.6431 5.04922V0.134543C52.6431 0.0896954 52.6291 0.0561729 52.6012 0.0335225C52.5732 0.0113252 52.5426 0 52.5092 0Z" fill="#00D1FF"/>
<path d="M81.237 0H77.3694C77.3248 0 77.291 0.0140432 77.2689 0.0421297C77.2464 0.0702161 77.2355 0.101021 77.2355 0.134543V13.1956H75.6115C75.3101 13.1956 75.0532 13.0611 74.8414 12.7916L67.3409 1.76718C66.537 0.63421 65.4262 0.0448477 64.009 0H57.5467C57.5021 0 57.4656 0.0140432 57.4377 0.0421297C57.4097 0.0702161 57.3958 0.101021 57.3958 0.134543V16.6965C57.3958 16.73 57.4097 16.7613 57.4377 16.7889C57.4656 16.817 57.5017 16.831 57.5467 16.831H61.4144C61.4477 16.831 61.4784 16.817 61.5063 16.7889C61.5342 16.7613 61.5482 16.73 61.5482 16.6965V3.63538H63.1722C63.4737 3.63538 63.7301 3.77582 63.9423 4.05623L71.4429 15.0806C72.2468 16.214 73.3571 16.7975 74.7747 16.831H81.2375C81.2821 16.831 81.3154 16.817 81.338 16.7889C81.36 16.7613 81.3713 16.73 81.3713 16.6965V0.134543C81.3713 0.101021 81.36 0.0702161 81.338 0.0421297C81.315 0.0140432 81.2816 0 81.237 0Z" fill="#00D1FF"/>
<path d="M109.191 0H85.5003C85.4557 0 85.4219 0.0140432 85.3998 0.0421297C85.3773 0.0702161 85.3665 0.101021 85.3665 0.134543V3.50084C85.3665 3.53436 85.3773 3.56562 85.3998 3.59325C85.4219 3.62134 85.4557 3.63538 85.5003 3.63538H95.2778V16.6965C95.2778 16.73 95.2886 16.7613 95.3112 16.7889C95.3332 16.817 95.367 16.831 95.4117 16.831H99.2793C99.3239 16.831 99.3573 16.817 99.3798 16.7889C99.4019 16.7613 99.4131 16.73 99.4131 16.6965V3.63538H109.191C109.235 3.63538 109.271 3.62134 109.299 3.59325C109.327 3.56517 109.341 3.53436 109.341 3.50084V0.134543C109.341 0.101021 109.327 0.0702161 109.299 0.0421297C109.272 0.0140432 109.236 0 109.191 0Z" fill="#00D1FF"/>
<path d="M137.918 0H134.051C134.017 0 133.986 0.0140432 133.959 0.0421297C133.931 0.0702161 133.917 0.101021 133.917 0.134543V6.5976H118.246V0.134543C118.246 0.101021 118.232 0.0702161 118.204 0.0421297C118.176 0.0144962 118.139 0 118.095 0H114.228C114.194 0 114.163 0.0140432 114.136 0.0421297C114.108 0.0702161 114.094 0.101021 114.094 0.134543V16.6965C114.094 16.73 114.108 16.7613 114.136 16.7889C114.164 16.817 114.194 16.831 114.228 16.831H118.095C118.14 16.831 118.176 16.817 118.204 16.7889C118.232 16.7608 118.246 16.73 118.246 16.6965V10.2334H133.917V16.6965C133.917 16.73 133.931 16.7613 133.959 16.7889C133.987 16.817 134.017 16.831 134.051 16.831H137.918C137.963 16.831 137.999 16.817 138.027 16.7889C138.055 16.7608 138.069 16.73 138.069 16.6965V0.134543C138.069 0.101021 138.054 0.0702161 138.027 0.0421297C137.999 0.0140432 137.962 0 137.918 0Z" fill="#00D1FF"/>
<path d="M166.543 0H147.775C146.38 0 145.185 0.487889 144.192 1.46412C143.199 2.44035 142.702 3.61862 142.702 4.99893V11.8153C142.702 13.207 143.199 14.3907 144.192 15.3669C145.185 16.3431 146.38 16.8315 147.775 16.8315H166.543C166.577 16.8315 166.607 16.8174 166.635 16.7893C166.663 16.7613 166.677 16.7305 166.677 16.6969V13.3306C166.677 13.2858 166.663 13.2523 166.635 13.2296C166.607 13.2074 166.577 13.1961 166.543 13.1961H147.775C147.518 13.1961 147.301 13.1064 147.122 12.927C146.943 12.7476 146.854 12.5343 146.854 12.2874V10.2334H166.531C166.576 10.2334 166.609 10.2194 166.632 10.1913C166.654 10.1632 166.665 10.1324 166.665 10.0989V6.73259C166.665 6.68774 166.654 6.65422 166.632 6.63157C166.609 6.60937 166.576 6.59805 166.531 6.59805H146.854V4.54457C146.854 4.29768 146.943 4.08476 147.122 3.90492C147.301 3.72553 147.518 3.63538 147.775 3.63538H166.543C166.577 3.63538 166.607 3.62134 166.635 3.59325C166.663 3.56562 166.677 3.53436 166.677 3.50084V0.134543C166.677 0.101021 166.663 0.0702161 166.635 0.0421297C166.607 0.0144962 166.577 0 166.543 0Z" fill="#00D1FF"/>
<path d="M195.135 0H171.444C171.4 0 171.366 0.0140432 171.344 0.0421297C171.321 0.0702161 171.31 0.101021 171.31 0.134543V3.50084C171.31 3.53436 171.321 3.56562 171.344 3.59325C171.366 3.62134 171.4 3.63538 171.444 3.63538H181.222V16.6965C181.222 16.73 181.232 16.7613 181.255 16.7889C181.278 16.817 181.311 16.831 181.355 16.831H185.223C185.268 16.831 185.301 16.817 185.324 16.7889C185.346 16.7613 185.357 16.73 185.357 16.6965V3.63538H195.134C195.179 3.63538 195.215 3.62134 195.243 3.59325C195.271 3.56517 195.285 3.53436 195.285 3.50084V0.134543C195.285 0.101021 195.271 0.0702161 195.243 0.0421297C195.216 0.0140432 195.179 0 195.135 0Z" fill="#00D1FF"/>
<path d="M204.14 0.0335225C204.117 0.0113252 204.084 0 204.039 0H200.172C200.127 0 200.093 0.0113252 200.071 0.0335225C200.049 0.0561729 200.038 0.0896954 200.038 0.134543V16.6965C200.038 16.73 200.049 16.7613 200.071 16.7889C200.093 16.817 200.127 16.831 200.172 16.831H204.039C204.084 16.831 204.117 16.817 204.14 16.7889C204.162 16.7608 204.173 16.73 204.173 16.6965V0.134543C204.173 0.0901484 204.162 0.0561729 204.14 0.0335225Z" fill="#00D1FF"/>
<path d="M214.818 4.09026C214.65 3.89955 214.444 3.80396 214.198 3.80396H209.175C209.131 3.80396 209.094 3.78992 209.067 3.76183C209.039 3.7342 209.025 3.70294 209.025 3.66942V0.303122C209.025 0.2696 209.039 0.238795 209.067 0.210709C209.094 0.183075 209.131 0.168579 209.175 0.168579H214.483C215.822 0.168579 216.977 0.713094 217.948 1.80122L219.238 3.36636L216.726 6.41283L214.818 4.09026ZM224.093 1.78446C225.064 0.707205 226.224 0.168579 227.575 0.168579H232.866C232.91 0.168579 232.944 0.179904 232.966 0.202102C232.988 0.224752 232.999 0.258275 232.999 0.303122V3.66942C232.999 3.70294 232.988 3.7342 232.966 3.76183C232.944 3.78992 232.91 3.80396 232.866 3.80396H227.843C227.597 3.80396 227.391 3.89955 227.223 4.09026L223.523 8.56733L227.24 13.0779C227.408 13.2578 227.608 13.3475 227.843 13.3475H232.866C232.91 13.3475 232.944 13.3615 232.966 13.3896C232.988 13.4177 232.999 13.4544 232.999 13.4988V16.8651C232.999 16.8986 232.988 16.9298 232.966 16.9575C232.944 16.9856 232.91 16.9996 232.866 16.9996H227.575C226.225 16.9996 225.07 16.4556 224.11 15.367L221.029 11.6306L217.948 15.367C216.977 16.4556 215.817 16.9996 214.466 16.9996H209.175C209.131 16.9996 209.097 16.9856 209.075 16.9575C209.052 16.9294 209.042 16.8932 209.042 16.8479V13.4816C209.042 13.448 209.052 13.4172 209.075 13.3891C209.097 13.3611 209.131 13.347 209.175 13.347H214.198C214.432 13.347 214.639 13.2519 214.818 13.0607L218.45 8.65114L224.093 1.78446Z" fill="#00D1FF"/>
</svg>
