<?xml version="1.0" encoding="UTF-8"?>
<!-- Created with Inkscape (http://www.inkscape.org/) -->
<svg width="315.74mm" height="148.17mm" version="1.1" viewBox="0 0 315.74 148.17" xml:space="preserve" xmlns="http://www.w3.org/2000/svg"><defs><linearGradient id="paint0_linear_1771_24552" x1="270.41" x2="499.47" y1="188.82" y2="105.29" gradientUnits="userSpaceOnUse"><stop stop-color="#4C02E1" offset=".18229"/><stop stop-color="#FF1CF7" offset=".41667"/></linearGradient><linearGradient id="paint1_linear_1771_24552" x1="267.97" x2="497.04" y1="182.13" y2="98.596" gradientUnits="userSpaceOnUse"><stop stop-color="#4C02E1" offset=".18229"/><stop stop-color="#FF1CF7" offset=".41667"/></linearGradient><linearGradient id="paint2_linear_1771_24552" x1="265.62" x2="494.68" y1="175.64" y2="92.108" gradientUnits="userSpaceOnUse"><stop stop-color="#4C02E1" offset=".18229"/><stop stop-color="#FF1CF7" offset=".41667"/></linearGradient><linearGradient id="paint3_linear_1771_24552" x1="263.21" x2="492.27" y1="168.99" y2="85.462" gradientUnits="userSpaceOnUse"><stop stop-color="#4C02E1" offset=".18229"/><stop stop-color="#FF1CF7" offset=".41667"/></linearGradient><linearGradient id="paint4_linear_1771_24552" x1="261.09" x2="490.16" y1="163.18" y2="79.646" gradientUnits="userSpaceOnUse"><stop stop-color="#4C02E1" offset=".18229"/><stop stop-color="#FF1CF7" offset=".41667"/></linearGradient><linearGradient id="paint5_linear_1771_24552" x1="259.16" x2="488.23" y1="157.88" y2="74.345" gradientUnits="userSpaceOnUse"><stop stop-color="#4C02E1" offset=".18229"/><stop stop-color="#FF1CF7" offset=".41667"/></linearGradient><linearGradient id="paint6_linear_1771_24552" x1="257.47" x2="486.54" y1="153.2" y2="69.667" gradientUnits="userSpaceOnUse"><stop stop-color="#4C02E1" offset=".18229"/><stop stop-color="#FF1CF7" offset=".41667"/></linearGradient><linearGradient id="paint7_linear_1771_24552" x1="255.83" x2="484.89" y1="148.69" y2="65.164" gradientUnits="userSpaceOnUse"><stop stop-color="#4C02E1" offset=".18229"/><stop stop-color="#FF1CF7" offset=".41667"/></linearGradient><linearGradient id="paint8_linear_1771_24552" x1="254.18" x2="483.24" y1="144.18" y2="60.647" gradientUnits="userSpaceOnUse"><stop stop-color="#4C02E1" offset=".18229"/><stop stop-color="#FF1CF7" offset=".41667"/></linearGradient><linearGradient id="paint9_linear_1771_24552" x1="252.7" x2="481.76" y1="140.09" y2="56.559" gradientUnits="userSpaceOnUse"><stop stop-color="#4C02E1" offset=".18229"/><stop stop-color="#FF1CF7" offset=".41667"/></linearGradient><linearGradient id="paint10_linear_1771_24552" x1="251.36" x2="480.43" y1="136.37" y2="52.836" gradientUnits="userSpaceOnUse"><stop stop-color="#4C02E1" offset=".18229"/><stop stop-color="#FF1CF7" offset=".41667"/></linearGradient><linearGradient id="paint11_linear_1771_24552" x1="250.13" x2="479.2" y1="133.01" y2="49.477" gradientUnits="userSpaceOnUse"><stop stop-color="#4C02E1" offset=".18229"/><stop stop-color="#FF1CF7" offset=".41667"/></linearGradient><linearGradient id="paint12_linear_1771_24552" x1="249.03" x2="478.09" y1="129.97" y2="46.436" gradientUnits="userSpaceOnUse"><stop stop-color="#4C02E1" offset=".18229"/><stop stop-color="#FF1CF7" offset=".41667"/></linearGradient><linearGradient id="paint13_linear_1771_24552" x1="248.14" x2="477.21" y1="127.5" y2="43.97" gradientUnits="userSpaceOnUse"><stop stop-color="#4C02E1" offset=".18229"/><stop stop-color="#FF1CF7" offset=".41667"/></linearGradient><linearGradient id="paint14_linear_1771_24552" x1="247.18" x2="476.25" y1="124.85" y2="41.322" gradientUnits="userSpaceOnUse"><stop stop-color="#4C02E1" offset=".18229"/><stop stop-color="#FF1CF7" offset=".41667"/></linearGradient><linearGradient id="paint15_linear_1771_24552" x1="246.29" x2="475.34" y1="122.39" y2="38.866" gradientUnits="userSpaceOnUse"><stop stop-color="#4C02E1" offset=".18229"/><stop stop-color="#FF1CF7" offset=".41667"/></linearGradient><linearGradient id="paint16_linear_1771_24552" x1="245.46" x2="474.52" y1="120.08" y2="36.546" gradientUnits="userSpaceOnUse"><stop stop-color="#4C02E1" offset=".18229"/><stop stop-color="#FF1CF7" offset=".41667"/></linearGradient><linearGradient id="paint17_linear_1771_24552" x1="244.66" x2="473.73" y1="117.86" y2="34.329" gradientUnits="userSpaceOnUse"><stop stop-color="#4C02E1" offset=".18229"/><stop stop-color="#FF1CF7" offset=".41667"/></linearGradient><linearGradient id="paint18_linear_1771_24552" x1="243.88" x2="472.94" y1="115.71" y2="32.185" gradientUnits="userSpaceOnUse"><stop stop-color="#4C02E1" offset=".18229"/><stop stop-color="#FF1CF7" offset=".41667"/></linearGradient><linearGradient id="paint19_linear_1771_24552" x1="243.21" x2="472.27" y1="113.84" y2="30.311" gradientUnits="userSpaceOnUse"><stop stop-color="#4C02E1" offset=".18229"/><stop stop-color="#FF1CF7" offset=".41667"/></linearGradient><linearGradient id="paint20_linear_1771_24552" x1="242.45" x2="471.51" y1="111.76" y2="28.231" gradientUnits="userSpaceOnUse"><stop stop-color="#4C02E1" offset=".18229"/><stop stop-color="#FF1CF7" offset=".41667"/></linearGradient><linearGradient id="paint21_linear_1771_24552" x1="241.68" x2="470.74" y1="109.63" y2="26.103" gradientUnits="userSpaceOnUse"><stop stop-color="#4C02E1" offset=".18229"/><stop stop-color="#FF1CF7" offset=".41667"/></linearGradient><linearGradient id="paint22_linear_1771_24552" x1="240.89" x2="469.95" y1="107.44" y2="23.908" gradientUnits="userSpaceOnUse"><stop stop-color="#4C02E1" offset=".18229"/><stop stop-color="#FF1CF7" offset=".41667"/></linearGradient><linearGradient id="paint23_linear_1771_24552" x1="240.07" x2="469.14" y1="105.14" y2="21.605" gradientUnits="userSpaceOnUse"><stop stop-color="#4C02E1" offset=".18229"/><stop stop-color="#FF1CF7" offset=".41667"/></linearGradient><linearGradient id="paint24_linear_1771_24552" x1="239.18" x2="468.24" y1="102.68" y2="19.146" gradientUnits="userSpaceOnUse"><stop stop-color="#4C02E1" offset=".18229"/><stop stop-color="#FF1CF7" offset=".41667"/></linearGradient><linearGradient id="paint25_linear_1771_24552" x1="238.25" x2="467.32" y1="100.11" y2="16.577" gradientUnits="userSpaceOnUse"><stop stop-color="#4C02E1" offset=".18229"/><stop stop-color="#FF1CF7" offset=".41667"/></linearGradient><linearGradient id="paint26_linear_1771_24552" x1="237.37" x2="466.44" y1="97.655" y2="14.123" gradientUnits="userSpaceOnUse"><stop stop-color="#4C02E1" offset=".18229"/><stop stop-color="#FF1CF7" offset=".41667"/></linearGradient><linearGradient id="paint27_linear_1771_24552" x1="236.52" x2="465.59" y1="95.321" y2="11.791" gradientUnits="userSpaceOnUse"><stop stop-color="#4C02E1" offset=".18229"/><stop stop-color="#FF1CF7" offset=".41667"/></linearGradient><linearGradient id="paint28_linear_1771_24552" x1="235.73" x2="464.8" y1="93.106" y2="9.5737" gradientUnits="userSpaceOnUse"><stop stop-color="#4C02E1" offset=".18229"/><stop stop-color="#FF1CF7" offset=".41667"/></linearGradient><linearGradient id="paint29_linear_1771_24552" x1="234.97" x2="464.04" y1="91.016" y2="7.4856" gradientUnits="userSpaceOnUse"><stop stop-color="#4C02E1" offset=".18229"/><stop stop-color="#FF1CF7" offset=".41667"/></linearGradient><linearGradient id="paint30_linear_1771_24552" x1="234.26" x2="463.33" y1="89.02" y2="5.4885" gradientUnits="userSpaceOnUse"><stop stop-color="#4C02E1" offset=".18229"/><stop stop-color="#FF1CF7" offset=".41667"/></linearGradient><linearGradient id="paint31_linear_1771_24552" x1="233.58" x2="462.65" y1="87.154" y2="3.6242" gradientUnits="userSpaceOnUse"><stop stop-color="#4C02E1" offset=".18229"/><stop stop-color="#FF1CF7" offset=".41667"/></linearGradient><linearGradient id="paint32_linear_1771_24552" x1="232.95" x2="462.01" y1="85.384" y2="1.8539" gradientUnits="userSpaceOnUse"><stop stop-color="#4C02E1" offset=".18229"/><stop stop-color="#FF1CF7" offset=".41667"/></linearGradient><linearGradient id="paint33_linear_1771_24552" x1="232.34" x2="461.4" y1="83.718" y2=".18871" gradientUnits="userSpaceOnUse"><stop stop-color="#4C02E1" offset=".18229"/><stop stop-color="#FF1CF7" offset=".41667"/></linearGradient><linearGradient id="paint34_linear_1771_24552" x1="231.79" x2="460.85" y1="82.159" y2="-1.3716" gradientUnits="userSpaceOnUse"><stop stop-color="#4C02E1" offset=".18229"/><stop stop-color="#FF1CF7" offset=".41667"/></linearGradient><linearGradient id="paint35_linear_1771_24552" x1="231.26" x2="460.33" y1="80.691" y2="-2.8391" gradientUnits="userSpaceOnUse"><stop stop-color="#4C02E1" offset=".18229"/><stop stop-color="#FF1CF7" offset=".41667"/></linearGradient><linearGradient id="paint36_linear_1771_24552" x1="230.77" x2="459.84" y1="79.329" y2="-4.2009" gradientUnits="userSpaceOnUse"><stop stop-color="#4C02E1" offset=".18229"/><stop stop-color="#FF1CF7" offset=".41667"/></linearGradient><linearGradient id="paint37_linear_1771_24552" x1="230.32" x2="459.38" y1="78.058" y2="-5.4725" gradientUnits="userSpaceOnUse"><stop stop-color="#4C02E1" offset=".18229"/><stop stop-color="#FF1CF7" offset=".41667"/></linearGradient><linearGradient id="paint38_linear_1771_24552" x1="229.9" x2="458.96" y1="76.882" y2="-6.648" gradientUnits="userSpaceOnUse"><stop stop-color="#4C02E1" offset=".18229"/><stop stop-color="#FF1CF7" offset=".41667"/></linearGradient><linearGradient id="paint39_linear_1771_24552" x1="229.5" x2="458.55" y1="75.809" y2="-7.7176" gradientUnits="userSpaceOnUse"><stop stop-color="#4C02E1" offset=".18229"/><stop stop-color="#FF1CF7" offset=".41667"/></linearGradient><linearGradient id="paint40_linear_1771_24552" x1="229.16" x2="458.24" y1="74.809" y2="-8.7244" gradientUnits="userSpaceOnUse"><stop stop-color="#4C02E1" offset=".18229"/><stop stop-color="#FF1CF7" offset=".41667"/></linearGradient><linearGradient id="paint41_linear_1771_24552" x1="228.85" x2="457.91" y1="73.945" y2="-9.5855" gradientUnits="userSpaceOnUse"><stop stop-color="#4C02E1" offset=".18229"/><stop stop-color="#FF1CF7" offset=".41667"/></linearGradient><linearGradient id="paint42_linear_1771_24552" x1="228.56" x2="457.63" y1="73.143" y2="-10.388" gradientUnits="userSpaceOnUse"><stop stop-color="#4C02E1" offset=".18229"/><stop stop-color="#FF1CF7" offset=".41667"/></linearGradient><linearGradient id="paint43_linear_1771_24552" x1="228.33" x2="457.4" y1="72.467" y2="-11.065" gradientUnits="userSpaceOnUse"><stop stop-color="#4C02E1" offset=".18229"/><stop stop-color="#FF1CF7" offset=".41667"/></linearGradient><linearGradient id="paint44_linear_1771_24552" x1="228.11" x2="457.18" y1="71.867" y2="-11.663" gradientUnits="userSpaceOnUse"><stop stop-color="#4C02E1" offset=".18229"/><stop stop-color="#FF1CF7" offset=".41667"/></linearGradient><linearGradient id="paint45_linear_1771_24552" x1="227.92" x2="456.97" y1="71.328" y2="-12.199" gradientUnits="userSpaceOnUse"><stop stop-color="#4C02E1" offset=".18229"/><stop stop-color="#FF1CF7" offset=".41667"/></linearGradient><linearGradient id="paint46_linear_1771_24552" x1="227.76" x2="456.82" y1="70.876" y2="-12.653" gradientUnits="userSpaceOnUse"><stop stop-color="#4C02E1" offset=".18229"/><stop stop-color="#FF1CF7" offset=".41667"/></linearGradient><linearGradient id="paint47_linear_1771_24552" x1="227.62" x2="456.68" y1="70.48" y2="-13.048" gradientUnits="userSpaceOnUse"><stop stop-color="#4C02E1" offset=".18229"/><stop stop-color="#FF1CF7" offset=".41667"/></linearGradient><linearGradient id="paint48_linear_1771_24552" x1="227.38" x2="456.44" y1="69.792" y2="-13.738" gradientUnits="userSpaceOnUse"><stop stop-color="#4C02E1" offset=".18229"/><stop stop-color="#FF1CF7" offset=".41667"/></linearGradient><linearGradient id="paint49_linear_1771_24552" x1="226.99" x2="456.06" y1="68.681" y2="-14.852" gradientUnits="userSpaceOnUse"><stop stop-color="#4C02E1" offset=".18229"/><stop stop-color="#FF1CF7" offset=".41667"/></linearGradient><linearGradient id="paint50_linear_1771_24552" x1="226.62" x2="455.68" y1="67.661" y2="-15.87" gradientUnits="userSpaceOnUse"><stop stop-color="#4C02E1" offset=".18229"/><stop stop-color="#FF1CF7" offset=".41667"/></linearGradient><linearGradient id="paint51_linear_1771_24552" x1="226.28" x2="455.35" y1="66.73" y2="-16.8" gradientUnits="userSpaceOnUse"><stop stop-color="#4C02E1" offset=".18229"/><stop stop-color="#FF1CF7" offset=".41667"/></linearGradient><linearGradient id="paint52_linear_1771_24552" x1="225.98" x2="455.04" y1="65.868" y2="-17.66" gradientUnits="userSpaceOnUse"><stop stop-color="#4C02E1" offset=".18229"/><stop stop-color="#FF1CF7" offset=".41667"/></linearGradient><linearGradient id="paint53_linear_1771_24552" x1="225.71" x2="454.77" y1="65.121" y2="-18.407" gradientUnits="userSpaceOnUse"><stop stop-color="#4C02E1" offset=".18229"/><stop stop-color="#FF1CF7" offset=".41667"/></linearGradient><linearGradient id="paint54_linear_1771_24552" x1="225.47" x2="454.54" y1="64.449" y2="-19.081" gradientUnits="userSpaceOnUse"><stop stop-color="#4C02E1" offset=".18229"/><stop stop-color="#FF1CF7" offset=".41667"/></linearGradient><linearGradient id="paint55_linear_1771_24552" x1="225.26" x2="454.32" y1="63.863" y2="-19.667" gradientUnits="userSpaceOnUse"><stop stop-color="#4C02E1" offset=".18229"/><stop stop-color="#FF1CF7" offset=".41667"/></linearGradient><linearGradient id="paint56_linear_1771_24552" x1="225.08" x2="454.14" y1="63.367" y2="-20.163" gradientUnits="userSpaceOnUse"><stop stop-color="#4C02E1" offset=".18229"/><stop stop-color="#FF1CF7" offset=".41667"/></linearGradient><linearGradient id="paint57_linear_1771_24552" x1="224.93" x2="453.99" y1="62.962" y2="-20.568" gradientUnits="userSpaceOnUse"><stop stop-color="#4C02E1" offset=".18229"/><stop stop-color="#FF1CF7" offset=".41667"/></linearGradient><linearGradient id="paint58_linear_1771_24552" x1="224.81" x2="453.88" y1="62.64" y2="-20.891" gradientUnits="userSpaceOnUse"><stop stop-color="#4C02E1" offset=".18229"/><stop stop-color="#FF1CF7" offset=".41667"/></linearGradient><linearGradient id="paint59_linear_1771_24552" x1="224.73" x2="453.8" y1="62.417" y2="-21.114" gradientUnits="userSpaceOnUse"><stop stop-color="#4C02E1" offset=".18229"/><stop stop-color="#FF1CF7" offset=".41667"/></linearGradient><linearGradient id="paint60_linear_1771_24552" x1="224.68" x2="453.73" y1="62.276" y2="-21.252" gradientUnits="userSpaceOnUse"><stop stop-color="#4C02E1" offset=".18229"/><stop stop-color="#FF1CF7" offset=".41667"/></linearGradient><linearGradient id="paint61_linear_1771_24552" x1="224.66" x2="453.73" y1="62.188" y2="-21.345" gradientUnits="userSpaceOnUse"><stop stop-color="#4C02E1" offset=".18229"/><stop stop-color="#FF1CF7" offset=".41667"/></linearGradient></defs><g transform="translate(-23.214 -86.389)"><g transform="matrix(.5306 0 0 .5306 23.027 95.753)" fill="none" stroke-miterlimit="10" stroke-opacity=".25" stroke-width="2"><path d="m52.142 260.63c23.393-6.301 48.03-11.668 70.498-20.076 27.75-10.382 52.885-25.253 80.288-36.268 22.294-8.96 43.567-11.467 68.014-10.027 20.17 1.189 40.203 2.966 59.845-2.072 20.759-5.323 36.281-18.877 53.307-29.764 19.66-12.572 39.033-16.21 63.334-13.82 23.141 2.276 45.709 7.111 68.449 0.408 28.118-8.289 50.905-25.93 79.271-33.879" stroke="url(#paint0_linear_1771_24552)"/><path d="m50.537 256.23c22.79-6.15 47.076-11.344 68.785-19.945 28.732-11.381 54.447-27.685 82.774-39.767 22.566-9.628 42.994-11.001 67.68-7.521 19.523 2.752 39.532 6.611 58.99 1.884 21.87-5.32 37.956-21.833 55.032-33.91 8.951-6.306 18.539-12.536 29.991-14.763 11.211-2.177 23.038-0.915 34.229 0.989 22.552 3.816 45.84 11.147 68.434 4.056 27.819-8.735 49.002-28.095 77.106-36.515" opacity=".5" stroke="url(#paint1_linear_1771_24552)"/><path d="m48.978 251.9c22.231-6.011 46.139-11.071 67.123-19.8 29.645-12.319 55.858-29.972 85.029-43.057 22.925-10.287 42.528-10.608 67.327-5.078 18.803 4.193 38.788 10.119 58.165 5.693 22.926-5.239 39.79-24.832 56.897-37.946 8.96-6.872 18.914-14.253 30.926-16.434 11.259-2.044 23.269 0.051 34.244 2.618 21.882 5.125 45.887 15.003 68.399 7.516 27.531-9.162 47.032-30.15 74.892-39.009" stroke="url(#paint2_linear_1771_24552)"/><path d="m47.432 247.64c21.696-5.879 45.256-10.846 65.601-19.632 30.454-13.157 57.095-32.045 86.991-46.029 11.385-5.322 22.453-9.601 35.667-9.157 10.766 0.362 21.182 3.272 31.317 6.319 18.129 5.444 38.043 13.32 57.464 9.151 23.878-5.125 41.591-27.677 58.733-41.672 8.988-7.34 19.32-15.82 31.834-17.965 11.346-1.951 23.489 0.917 34.25 4.079 21.222 6.23 45.852 18.492 68.365 10.635 27.286-9.528 45.112-32.02 72.785-41.246" opacity=".5" stroke="url(#paint3_linear_1771_24552)"/><path d="m45.91 243.46c21.238-5.76 44.487-10.65 64.288-19.443 31.104-13.814 57.991-33.777 88.504-48.488 11.371-5.482 22.341-9.931 35.672-8.982 10.823 0.791 21.106 4.368 31.029 8.037 17.559 6.482 37.376 16.043 56.963 12.047 12.518-2.553 22.794-11.457 31.646-19.036 9.82-8.408 18.919-17.429 28.733-25.842 9.02-7.73 19.676-17.102 32.648-19.217 11.463-1.871 23.655 1.608 34.252 5.264 20.691 7.157 45.683 21.456 68.318 13.264 27.13-9.809 43.379-33.642 70.956-43.118" opacity=".5" stroke="url(#paint4_linear_1771_24552)"/><path d="m44.416 239.35c20.857-5.658 43.866-10.48 63.24-19.224 31.584-14.251 58.544-35.104 89.468-50.332 11.28-5.562 22.299-10.137 35.617-8.861 10.904 1.044 21.122 5.183 30.907 9.325 17.219 7.285 36.883 18.12 56.75 14.186 12.884-2.559 23.349-12.026 32.266-19.923 10.063-8.92 19.336-18.488 29.397-27.414 9.069-8.051 19.932-17.991 33.264-20.13 11.595-1.859 23.758 2.049 34.249 6.107 20.397 7.885 45.339 23.703 68.301 15.283 27.084-9.932 41.946-34.957 69.56-44.504" opacity=".5" stroke="url(#paint5_linear_1771_24552)"/><path d="m42.953 235.32c20.566-5.569 43.444-10.33 62.527-18.967 31.836-14.409 58.645-35.937 89.764-51.406 11.113-5.518 22.336-10.18 35.499-8.83 11.021 1.13 21.253 5.634 30.994 10.075 17.194 7.854 36.651 19.391 56.912 15.312 13.158-2.648 23.634-12.186 32.618-20.353 10.218-9.269 19.585-19.225 29.797-28.5 9.132-8.296 20.014-18.354 33.606-20.573 11.72-1.914 23.76 2.157 34.247 6.51 20.485 8.5 44.783 25.061 68.306 16.511 27.183-9.878 40.955-35.906 68.761-45.276" opacity=".5" stroke="url(#paint6_linear_1771_24552)"/><path d="m41.511 231.35c20.469-5.608 43.331-10.195 62.304-18.871 31.573-14.451 57.836-36.261 88.631-51.81 11.055-5.578 22.3-10.159 35.436-8.86 11.168 1.112 21.584 5.655 31.462 10.145 17.497 7.955 37.171 19.647 57.769 15.71 13.296-2.543 23.724-11.985 32.728-20.247 10.203-9.367 19.499-19.449 29.697-28.819 9.148-8.41 19.995-18.359 33.719-20.512 11.825-1.855 23.813 2.244 34.341 6.666 20.615 8.661 44.494 25.029 68.254 16.547 27.318-9.744 40.668-36.269 68.673-45.449" stroke="url(#paint7_linear_1771_24552)"/><path d="m40.1 227.47c20.522-5.724 43.45-9.926 62.412-18.849 30.887-14.536 56.368-36.379 86.474-52.001 11.135-5.781 22.108-10.177 35.421-8.892 11.355 1.09 22.028 5.488 32.161 9.848 17.892 7.711 38.215 19.4 59.005 15.988 13.338-2.187 23.806-11.658 32.716-19.892 10.063-9.297 19.18-19.337 29.236-28.64 9.116-8.433 19.981-18.334 33.781-20.221 11.871-1.624 24.034 2.534 34.649 6.853 20.602 8.378 44.811 24.229 68.296 15.882 27.395-9.739 40.77-36.401 68.852-45.573" stroke="url(#paint8_linear_1771_24552)"/><path d="m38.719 223.66c20.624-5.795 43.672-9.488 62.683-18.65 30.151-14.531 54.77-36.339 84.132-51.936 11.187-5.952 21.938-10.149 35.362-8.956 11.5 1.022 22.443 5.159 32.848 9.392 18.296 7.435 39.274 18.887 60.219 15.957 13.328-1.862 23.743-11.181 32.564-19.365 9.879-9.179 18.766-19.111 28.638-28.285 9.078-8.434 19.885-18.119 33.71-19.755 11.961-1.412 24.308 2.729 35.083 6.929 20.716 8.056 45.29 23.252 68.6 14.981 27.523-9.763 40.966-36.592 69.174-45.791" stroke="url(#paint9_linear_1771_24552)"/><path d="m37.362 219.92c20.771-5.823 44.026-8.916 63.112-18.304 29.372-14.442 53.075-36.161 81.641-51.678 11.195-6.081 21.788-10.077 35.265-9.036 11.652 0.898 22.848 4.764 33.524 8.798 18.815 7.075 40.247 18.158 61.412 15.662 13.27-1.567 23.557-10.568 32.286-18.687 9.657-8.989 18.276-18.785 27.924-27.778 9.035-8.427 19.701-17.737 33.523-19.143 12.087-1.225 24.628 2.835 35.623 6.878 20.941 7.695 45.911 22.117 69.097 13.89 27.69-9.825 41.243-36.84 69.622-46.095" stroke="url(#paint10_linear_1771_24552)"/><path d="m36.029 216.25c20.959-5.819 44.457-8.222 63.666-17.829 28.56-14.282 51.304-35.882 79.052-51.224 11.149-6.173 21.648-9.977 35.117-9.137 11.797 0.736 23.225 4.3 34.176 8.05 19.394 6.644 41.174 17.231 62.566 15.131 25.818-2.53 42.85-29.926 59.016-45.02 8.997-8.405 19.465-17.216 33.245-18.394 12.253-1.044 24.981 2.8938 36.239 6.7608 21.256 7.299 46.647 20.853 69.769 12.632 27.89-9.912 41.59-37.136 70.167-46.47" stroke="url(#paint11_linear_1771_24552)"/><path d="m34.727 212.66c21.174-5.786 44.953-7.429 64.326-17.236 27.733-14.064 49.49-35.472 76.384-50.611 11.085-6.236 21.535-9.849 34.953-9.253 11.935 0.536 23.586 3.747 34.809 7.213 19.954 6.156 42.038 16.114 63.682 14.397 25.591-2.038 41.783-28.548 57.641-43.386 8.771-8.196 19.303-16.911 32.894-17.541 12.618-0.587 25.167 2.8254 36.938 6.5659 21.632 6.868 47.466 19.479 70.581 11.239 28.119-10.02 41.99-37.468 70.797-46.911" stroke="url(#paint12_linear_1771_24552)"/><path d="m33.452 209.14c21.412-5.738 45.514-6.56 65.064-16.585 26.895-13.793 47.642-34.996 73.683-49.862 45.219-25.829 88.003 13.331 134.94 10.441 25.305-1.551 40.57-27.015 56.149-41.563 8.735-8.147 18.986-16.18 32.475-16.612 12.844-0.4114 25.585 2.8005 37.693 6.3205 22.067 6.424 48.355 18.025 71.508 9.741 28.37-10.141 42.436-37.827 71.499-47.382" stroke="url(#paint13_linear_1771_24552)"/><path d="m32.203 205.69c21.67-5.654 46.118-5.644 65.87-15.865 26.061-13.482 45.803-34.451 70.972-49.015 44.188-25.564 89.887 10.387 136.35 8.318 25.02-1.108 39.258-25.349 54.555-39.623 8.698-8.114 18.655-15.373 32.016-15.626 13.08-0.2387 26.034 2.7495 38.49 6.0339 22.524 5.9398 49.28 16.519 72.519 8.1648 28.631-10.288 42.914-38.206 72.245-47.89" stroke="url(#paint14_linear_1771_24552)"/><path d="m30.981 202.32c21.937-5.57 46.748-4.699 66.727-15.104 25.236-13.141 43.954-33.854 68.294-48.09 43.169-25.252 91.666 7.316 137.67 6.065 24.724-0.673 37.866-23.616 52.901-37.62 8.671-8.0747 18.304-14.51 31.512-14.612 13.318-0.0882 26.502 2.6966 39.312 5.7232 22.999 5.4493 50.218 14.978 73.562 6.5503 28.894-10.438 43.411-38.601 73.02-48.421" stroke="url(#paint15_linear_1771_24552)"/><path d="m29.786 199.02c22.201-5.481 47.396-3.751 67.627-14.329 24.44-12.782 42.166-33.237 65.684-47.123 42.18-24.906 93.335 4.213 138.86 3.753 24.428-0.246 36.443-21.852 51.229-35.597 8.637-8.0296 17.99-13.631 31.04-13.568 13.561 0.068 26.983 2.6291 40.14 5.4035 23.477 4.9585 51.149 13.438 74.626 4.9185 29.182-10.592 43.922-38.984 73.805-48.958" stroke="url(#paint16_linear_1771_24552)"/><path d="m28.617 195.79c22.457-5.393 48.035-2.827 68.494-13.552 23.678-12.416 40.436-32.607 63.174-46.135 41.292-24.563 94.946 1.1 140.02 1.419 24.134 0.174 35.018-20.095 49.569-33.603 8.604-7.9839 17.7-12.758 30.557-12.542 13.805 0.2272 27.467 2.5826 40.961 5.0922 23.931 4.4515 52.051 11.914 75.678 3.3088 29.459-10.742 44.415-39.392 74.582-49.486" stroke="url(#paint17_linear_1771_24552)"/><path d="m27.475 192.63c22.729-5.317 48.66-1.942 69.367-12.806 22.962-12.05 38.795-31.983 60.805-45.156 40.452-24.214 96.41-1.949 141.01-0.847 23.884 0.589 33.598-18.405 47.967-31.672 8.589-7.9251 17.402-11.92 30.098-11.555 14.042 0.3886 27.947 2.5593 41.756 4.8069 24.364 3.9622 52.904 10.431 76.682 1.7261 29.721-10.885 44.889-39.77 75.319-49.995" stroke="url(#paint18_linear_1771_24552)"/><path d="m26.361 189.55c22.982-5.258 49.26-1.126 70.201-12.108 22.309-11.696 37.274-31.396 58.605-44.217 20.694-12.44 47.729-11.9 71.96-10.076 23.368 1.762 46.544 6.075 69.972 7.073 23.741 1.013 32.131-16.854 46.449-29.864 19.015-17.269 47.762-9.5313 72.193-6.0664 24.751 3.4995 53.683 9.0214 77.605 0.2269 29.972-11.014 45.339-40.126 76.027-50.471" stroke="url(#paint19_linear_1771_24552)"/><path d="m25.271 186.54c23.229-5.219 49.767-0.385 70.985-11.48 21.721-11.366 35.886-30.841 56.631-43.348 20.491-12.363 48.066-12.288 72.166-11.129 23.599 1.137 46.974 4.726 70.557 6.158s30.92-15.386 45.058-28.218c18.588-16.864 48.704-8.3329 72.536-5.4109 25.089 3.0754 54.375 7.6965 78.422-1.1641 30.196-11.128 45.741-40.455 76.644-50.905" stroke="url(#paint20_linear_1771_24552)"/><path d="m24.21 183.61c23.471-5.2 50.213 0.248 71.688-10.95 21.215-11.058 34.669-30.336 54.851-42.558 20.325-12.286 48.372-12.642 72.361-12.085 23.798 0.558 47.38 3.5 71.087 5.374 11.183 0.882 18.488-0.915 26.393-8.037 6.424-5.789 11.038-12.933 17.441-18.746 8.541-7.7605 16.843-9.8326 29.043-9.0338 14.662 0.9663 29.232 2.6906 43.84 4.2448 25.343 2.673 54.935 6.4863 79.089-2.4239 30.399-11.216 46.089-40.748 77.209-51.282" stroke="url(#paint21_linear_1771_24552)"/><path d="m23.173 180.74c23.687-5.258 50.56 0.757 72.301-10.53 20.807-10.804 33.605-29.963 53.391-41.906 20.228-12.209 48.646-12.962 72.546-12.907 23.901 0.055 47.705 2.459 71.504 4.791 10.998 1.077 18.25-0.297 26.08-7.373 6.208-5.612 10.546-12.602 16.726-18.235 8.486-7.7388 16.802-9.3861 28.858-8.4148 14.816 1.194 29.579 2.8554 44.377 4.2063 25.523 2.3273 55.4 5.4113 79.589-3.516 30.567-11.278 46.368-40.993 77.638-51.582" stroke="url(#paint22_linear_1771_24552)"/><path d="m22.166 177.96c23.896-5.343 50.793 1.122 72.793-10.248 20.509-10.608 32.705-29.726 52.251-41.408 20.234-12.102 48.831-13.215 72.714-13.616 24.075-0.409 47.938 1.612 71.81 4.403 10.851 1.265 18.126 0.194 25.885-6.863 6.032-5.481 10.13-12.371 16.127-17.879 8.432-7.742 16.842-9.1069 28.789-7.946 14.927 1.443 29.846 3.0776 44.807 4.2725 25.582 2.0462 55.706 4.4908 79.882-4.4147 30.692-11.309 46.562-41.187 77.97-51.805" stroke="url(#paint23_linear_1771_24552)"/><path d="m21.184 175.24c24.078-5.49 50.893 1.329 73.152-10.126 20.312-10.454 32.108-29.534 51.42-41.076 20.173-12.054 49.071-13.389 72.886-14.145 24.192-0.767 48.074 1.02 72.013 4.291 10.757 1.472 18.128 0.549 25.826-6.525 5.891-5.414 9.799-12.256 15.667-17.7 8.378-7.7752 16.953-9.028 28.842-7.6522 15.005 1.7346 30.035 3.3791 45.113 4.4551 25.576 1.8232 55.852 3.7553 79.939-5.0899 30.778-11.299 46.663-41.319 78.156-51.932" stroke="url(#paint24_linear_1771_24552)"/><path d="m20.231 172.6c24.166-5.612 50.877 1.387 73.267-10.153 20.238-10.431 31.936-29.47 51.192-40.961 20.157-12.028 49.219-13.276 73.002-14.144 24.237-0.884 48.03 0.865 72.01 4.169 10.723 1.481 18.144 0.399 25.789-6.627 5.85-5.3782 9.738-12.164 15.584-17.552 8.366-7.7064 17.083-9.0262 28.917-7.5051 15.013 1.928 30.073 3.6086 45.191 4.6228 25.413 1.7073 56.003 3.4427 79.866-5.4334 30.689-11.41 46.877-41.075 78.199-51.906" stroke="url(#paint25_linear_1771_24552)"/><path d="m19.29 169.99c24.201-5.665 50.882 1.436 73.307-10.179 20.191-10.461 32.02-29.402 51.304-40.861 20.172-11.988 49.269-12.959 73.03-13.784 24.174-0.838 47.872 0.922 71.842 3.767 22.688 2.691 28.008-12.222 41.501-24.249 8.435-7.5185 17.185-8.905 28.931-7.3423 14.974 1.993 30.006 3.6662 45.101 4.6288 25.232 1.6073 56.192 3.2904 79.809-5.7301 30.456-11.637 47.288-40.445 78.218-51.704" stroke="url(#paint26_linear_1771_24552)"/><path d="m18.363 167.43c24.263-5.71 50.927 1.501 73.408-10.177 20.184-10.488 32.137-29.294 51.451-40.704 20.189-11.941 49.293-12.652 73.026-13.453 24.089-0.811 47.696 0.937 71.631 3.323 22.338 2.23 28.088-12.559 41.718-24.242 8.511-7.31 17.327-8.7431 28.985-7.1492 14.925 2.039 29.904 3.6821 44.968 4.5666 25.084 1.476 56.284 2.9895 79.637-6.1416 30.219-11.813 47.707-39.741 78.246-51.368" stroke="url(#paint27_linear_1771_24552)"/><path d="m17.453 164.91c24.339-5.752 51.007 1.573 73.57-10.152 20.161-10.475 32.275-29.146 51.626-40.5 20.225-11.842 49.301-12.368 72.994-13.154 23.977-0.8 47.518 0.904 71.367 2.827 22.017 1.768 28.211-12.846 42.007-24.199 8.621-7.0889 17.501-8.5393 29.082-6.9289 14.857 2.068 29.789 3.6591 44.79 4.444 24.963 1.3125 56.252 2.5594 79.389-6.6632 29.998-11.953 48.139-38.964 78.296-50.913" stroke="url(#paint28_linear_1771_24552)"/><path d="m16.559 162.44c24.439-5.786 51.102 1.653 73.789-10.109 20.152-10.443 32.429-28.984 51.84-40.231 20.255-11.738 49.249-12.079 72.929-12.879 23.844-0.8012 47.294 0.8446 71.062 2.2876 21.691 1.319 28.369-13.084 42.378-24.08 8.74-6.8634 17.698-8.3022 29.211-6.6877 14.767 2.1228 29.645 3.5464 44.567 4.2641 24.871 1.1155 56.121 2.0172 79.073-7.2932 29.741-12.044 48.566-38.121 78.326-50.329" stroke="url(#paint29_linear_1771_24552)"/><path d="m15.685 160.01c24.548-5.815 51.246 1.741 74.056-10.046 20.146-10.402 32.607-28.789 52.086-39.93 20.29-11.606 49.214-11.812 72.843-12.624 23.709-0.8225 47.065 0.739 70.715 1.707 21.373 0.8773 28.566-13.29 42.819-23.913 8.882-6.6214 17.923-8.028 29.371-6.4183 14.677 2.107 29.474 3.4507 44.311 4.0243 24.801 0.8918 55.879 1.3346 78.675-8.0177 29.501-12.103 49.003-37.21 78.381-49.647" stroke="url(#paint30_linear_1771_24552)"/><path d="m14.828 157.63c24.674-5.846 51.411 1.828 74.374-9.957 20.151-10.342 32.81-28.565 52.343-39.579 20.33-11.464 49.143-11.55 72.738-12.4 23.517-0.8586 46.825 0.5927 70.325 1.0816 21.065 0.4409 28.812-13.457 43.331-23.691 9.036-6.3689 18.17-7.7244 29.575-6.1101 14.571 2.0777 29.269 3.3287 44.001 3.7449 24.746 0.6265 55.544 0.5605 78.213-8.8339 29.258-12.122 49.431-36.237 78.438-48.853" stroke="url(#paint31_linear_1771_24552)"/><path d="m13.987 155.3c24.816-5.865 51.618 1.932 74.735-9.865 20.164-10.258 33.03-28.3 52.638-39.178 20.373-11.301 49.061-11.299 72.586-12.192 23.343-0.8839 46.57 0.4143 69.904 0.4255 20.762 7e-3 29.095-13.602 43.9-23.426 9.206-6.0956 18.435-7.393 29.797-5.8069 14.464 2.0353 29.061 3.1742 43.684 3.4088 24.725 0.3528 55.134-0.302 77.697-9.7263 29.011-12.128 49.86-35.208 78.497-47.976" stroke="url(#paint32_linear_1771_24552)"/><path d="m13.164 153.03c24.97-5.885 51.817 2.046 75.144-9.731 20.174-10.189 33.261-28.043 52.945-38.768 20.421-11.122 48.955-11.053 72.428-12.001 23.159-0.9328 46.305 0.1987 69.444-0.2678 20.47-0.405 29.422-13.715 44.526-23.115 9.38-5.8337 18.72-7.0334 30.034-5.5073 14.347 1.9768 28.833 2.9914 43.329 3.0354 24.706 0.0386 54.632-1.2593 77.114-10.702 28.785-12.067 50.285-34.122 78.566-47.004" stroke="url(#paint33_linear_1771_24552)"/><path d="m12.363 150.81c25.134-5.9 52.052 2.157 75.563-9.593 20.222-10.089 33.531-27.756 53.304-38.316 20.468-10.928 48.819-10.813 72.265-11.834 22.963-0.9932 46.024-0.0489 68.963-0.9958 20.175-0.8296 29.785-13.808 45.206-22.763 9.565-5.5531 19.011-6.6545 30.311-5.1465 14.222 1.9084 28.586 2.7844 42.945 2.6197 24.679-0.2952 54.051-2.2725 76.466-11.737 28.54-12.027 50.704-32.988 78.637-45.96" stroke="url(#paint34_linear_1771_24552)"/><path d="m11.586 148.65c25.297-5.919 52.29 2.263 76.054-9.464 20.223-9.984 33.77-27.439 53.636-37.824 20.513-10.726 48.681-10.58 72.043-11.684 22.767-1.0639 45.735-0.3308 68.453-1.7477 19.897-1.2382 30.192-13.896 45.928-22.38 9.753-5.2662 19.315-6.2643 30.608-4.7871 14.091 1.8291 28.326 2.5559 42.533 2.1715 24.704-0.6687 53.431-3.3943 75.811-12.842 28.314-11.941 51.112-31.81 78.712-44.848" stroke="url(#paint35_linear_1771_24552)"/><path d="m10.822 146.53c25.496-5.921 52.579 2.386 76.557-9.297 20.262-9.867 34.059-27.114 54.011-37.311 20.57-10.509 48.531-10.352 71.834-11.526 22.567-1.1375 45.433-0.6381 67.918-2.5226 19.634-1.632 30.641-13.947 46.694-21.946 9.948-4.97 19.634-5.834 30.921-4.4172 13.957 1.7394 28.056 2.3059 42.102 1.6918 24.713-1.0631 52.746-4.5572 75.095-14 28.086-11.862 51.517-30.587 78.793-43.669" stroke="url(#paint36_linear_1771_24552)"/><path d="m10.083 144.48c25.692-5.926 52.863 2.506 77.095-9.129 20.287-9.742 34.326-26.768 54.389-36.774 20.618-10.286 48.365-10.125 71.596-11.393 22.37-1.2223 45.117-0.9705 67.358-3.3195 19.38-2.0467 31.122-13.992 47.49-21.524 10.142-4.6663 19.948-5.3925 31.256-4.0205 13.817 1.6404 27.773 2.0352 41.646 1.1783 24.71-1.4826 52.003-5.7766 74.346-15.204 27.872-11.754 51.913-29.329 78.883-42.445" stroke="url(#paint37_linear_1771_24552)"/><path d="m9.3681 142.5c25.887-5.927 53.164 2.625 77.636-8.951 20.336-9.618 34.628-26.417 54.792-36.222 20.672-10.049 48.193-9.9051 71.37-11.275 22.178-1.3086 44.793-1.3266 66.792-4.1368 19.145-2.4486 31.636-14.022 48.323-21.058 10.338-4.3634 20.269-4.9411 31.593-3.6393 13.677 1.5398 27.488 1.76 41.182 0.6572 24.716-1.931 51.219-7.0436 73.562-16.445 27.631-11.634 52.283-28.031 78.953-41.164" stroke="url(#paint38_linear_1771_24552)"/><path d="m8.6751 140.58c26.089-5.928 53.466 2.728 78.205-8.767 20.384-9.486 34.929-26.058 55.199-35.651 20.73-9.8001 48.015-9.6867 71.125-11.162 21.99-1.4034 44.46-1.7054 66.195-4.9677 18.932-2.841 32.171-14.03 49.163-20.569 10.527-4.0506 20.592-4.4762 31.936-3.2339 13.535 1.4298 27.196 1.4662 40.7 0.1078 24.706-2.3999 50.405-8.3456 72.757-17.724 27.443-11.512 52.655-26.704 79.047-39.85" stroke="url(#paint39_linear_1771_24552)"/><path d="m8.008 138.72c26.296-5.929 53.791 2.858 78.784-8.577 20.428-9.353 35.24-25.692 55.623-35.058 20.776-9.5586 47.826-9.4655 70.889-11.059 21.809-1.4894 44.117-2.0997 65.593-5.8111 18.75-3.2388 32.726-14.03 50.048-20.073 10.727-3.7413 20.896-3.9951 32.314-2.8306 13.394 1.317 26.903 1.1643 40.21-0.4541 55.978-6.5483 103.34-33.497 151.07-57.534" stroke="url(#paint40_linear_1771_24552)"/><path d="m7.3613 136.93c26.509-5.923 54.116 2.976 79.376-8.383 20.477-9.21 35.557-25.312 56.042-34.477 20.819-9.3162 47.635-9.2512 70.608-10.954 21.643-1.5935 43.775-2.5055 64.98-6.6739 18.598-3.6445 33.295-14.002 50.938-19.564 10.91-3.4313 21.229-3.5113 32.684-2.4186 13.236 1.2906 26.611 0.7912 39.716-1.0147 54.158-7.4609 103.86-33.866 150.32-57.489" stroke="url(#paint41_linear_1771_24552)"/><path d="m6.7424 135.21c26.722-5.919 54.444 3.091 79.97-8.186 20.532-9.083 35.877-24.934 56.467-33.88 20.873-9.0655 47.445-9.0333 70.346-10.866 21.481-1.71 43.423-2.9263 64.369-7.5195 18.487-4.0536 33.861-13.986 51.835-19.045 11.094-3.1213 21.543-3.0255 33.06-2.0003 13.108 1.1651 26.311 0.4468 39.21-1.6087 24.571-3.9165 47.833-12.421 70.239-21.687 26.883-11.119 53.681-22.596 79.318-35.769" stroke="url(#paint42_linear_1771_24552)"/><path d="m6.1481 133.56c26.701-5.874 54.402 3.17 80.029-7.753 20.549-8.772 36.085-24.216 56.511-33.112 20.644-8.9898 46.632-9.0912 69.292-11.019 21.9-1.8765 44.224-3.3987 65.47-8.5327 18.861-4.5567 35.254-14.443 54.122-18.856 11.389-2.6634 21.951-1.952 33.579-1.1342 12.078 0.8498 24.176-0.0515 35.992-2.1109 25.15-4.3839 48.164-14.023 71.153-23.46 26.536-10.891 53.61-21.056 78.841-34.138" stroke="url(#paint43_linear_1771_24552)"/><path d="m5.5771 131.98c26.903-5.866 54.74 3.28 80.619-7.554 20.606-8.628 36.391-23.842 56.934-32.518 20.696-8.724 46.463-8.8641 69.048-10.906 21.761-1.9629 43.89-3.7772 64.842-9.3911 18.805-5.0389 35.844-14.369 55.057-18.302 11.516-2.3597 22.225-1.4848 33.904-0.7641 11.958 0.7369 23.899-0.3691 35.524-2.6564 25.039-4.9274 47.266-15.466 70.281-24.819 26.397-10.727 53.916-19.658 78.929-32.761" stroke="url(#paint44_linear_1771_24552)"/><path d="m5.0371 130.48c27.124-5.864 55.051 3.393 81.21-7.365 20.662-8.497 36.701-23.471 57.356-31.93 20.728-8.4973 46.295-8.6307 68.825-10.789 21.601-2.061 43.529-4.1916 64.194-10.259 18.781-5.5151 36.423-14.292 55.982-17.751 11.643-2.0569 22.494-1.0197 34.214-0.3931 11.821 0.6317 23.626-0.6845 35.053-3.1986 24.91-5.4733 46.383-16.899 69.42-26.17 26.263-10.572 54.193-18.252 79.021-31.385" stroke="url(#paint45_linear_1771_24552)"/><path d="m4.5256 129.05c27.324-5.87 55.389 3.491 81.796-7.177 20.712-8.37 37-23.119 57.774-31.35 20.776-8.2306 46.123-8.3961 68.552-10.661 21.508-2.1703 43.221-4.5954 63.596-11.118 18.782-6.0125 36.988-14.215 56.892-17.207 11.772-1.7717 22.762-0.5581 34.551-0.0374 11.788 0.5209 23.362-0.998 34.593-3.732 24.715-6.0091 45.526-18.32 68.565-27.505 26.143-10.423 54.501-16.861 79.117-30.032" stroke="url(#paint46_linear_1771_24552)"/><path d="m4.0379 127.7c27.533-5.854 55.711 3.578 82.37-6.99 20.77-8.247 37.304-22.747 58.186-30.781 20.794-7.9994 45.982-8.1663 68.332-10.537 21.403-2.2733 42.885-4.992 62.985-11.964 18.803-6.5221 37.536-14.144 57.791-16.682 11.841-1.4819 23.016-0.0999 34.852 0.3243 11.617 0.4144 23.117-1.3097 34.139-4.2519 24.521-6.5416 44.695-19.712 67.727-28.816 26.049-10.296 54.789-15.483 79.204-28.705" stroke="url(#paint47_linear_1771_24552)"/><path d="m3.5796 126.43c27.731-5.856 56.024 3.687 82.926-6.817 20.829-8.121 37.597-22.411 58.591-30.214 20.855-7.7652 45.796-7.9165 68.107-10.404 21.316-2.3878 42.582-5.3902 62.391-12.799 18.84-7.044 38.066-14.075 58.677-16.172 11.932-1.2197 23.264 0.3416 35.151 0.6688 11.527 0.3154 22.852-1.6052 33.687-4.7552 24.291-7.0566 43.897-21.07 66.918-30.101 25.926-10.169 55.044-14.103 79.29-27.414" stroke="url(#paint48_linear_1771_24552)"/><path d="m3.1538 125.24c27.919-5.852 56.33 3.776 83.465-6.645 20.877-8.021 37.901-22.065 58.975-29.682 20.884-7.5482 45.636-7.6597 67.893-10.263 21.236-2.4936 42.288-5.7754 61.812-13.612 18.885-7.5788 38.593-14.028 59.514-15.682 12.017-0.9522 23.504 0.7852 35.462 1.0214 11.417 0.2063 22.614-1.894 33.272-5.2463 24.039-7.5557 43.137-22.384 66.137-31.347 25.822-10.065 55.304-12.754 79.377-26.153" stroke="url(#paint49_linear_1771_24552)"/><path d="m2.7558 124.14c28.087-5.846 56.621 3.872 83.98-6.481 20.925-7.923 38.158-21.735 59.353-29.167 20.921-7.3328 45.504-7.4101 67.688-10.11 21.179-2.5721 42.011-6.1512 61.25-14.405 18.94-8.1227 39.059-13.986 60.32-15.219 12.085-0.6976 23.739 1.2128 35.742 1.3568 11.333 0.1348 22.389-2.171 32.855-5.7086 23.769-8.0341 42.415-23.637 65.381-32.556 25.748-9.9869 55.559-11.429 79.46-24.949" stroke="url(#paint50_linear_1771_24552)"/><path d="m2.3893 123.12c28.274-5.856 56.907 3.951 84.464-6.336 20.981-7.828 38.428-21.426 59.718-28.669 20.954-7.1277 45.367-7.1593 67.498-9.9469 21.126-2.6598 41.749-6.5165 60.715-15.18 18.966-8.6638 39.512-13.959 61.092-14.784 12.141-0.463 23.946 1.5668 36.005 1.6811 11.217 0.1119 22.2-2.4392 32.455-6.1559 23.501-8.4744 41.738-24.824 64.668-33.697 25.643-9.9225 55.815-10.137 79.539-23.802" stroke="url(#paint51_linear_1771_24552)"/><path d="m2.0665 122.17c28.437-5.864 57.158 4.036 84.922-6.194 21.008-7.73 38.666-21.115 60.044-28.183 20.976-6.9336 45.252-6.9067 67.33-9.771 21.082-2.7461 41.506-6.8653 60.199-15.927 19.045-9.2292 39.927-13.965 61.812-14.385 12.197-0.2423 24.154 1.9426 36.261 1.9974 11.149 0.0499 22.003-2.6843 32.084-6.5505 10.999-4.221 21.165-9.8623 31.056-15.749 10.675-6.3476 21.084-14.456 32.943-19.042 25.557-9.8852 56.07-8.884 79.615-22.719" stroke="url(#paint52_linear_1771_24552)"/><path d="m1.7651 121.35c28.582-5.873 57.382 4.118 85.344-6.071 21.046-7.671 38.896-20.869 60.367-27.761 21.003-6.7564 45.134-6.6507 67.168-9.5788 21.06-2.8058 41.299-7.1946 59.723-16.642 19.085-9.7878 40.311-13.991 62.499-14.022 12.228-0.0108 24.326 2.2998 36.473 2.296 11.084-5e-3 21.824-2.9043 31.737-6.9253 10.902-4.4164 20.921-10.272 30.678-16.33 10.515-6.526 20.851-14.891 32.703-19.485 25.472-9.87 56.325-7.6715 79.684-21.714" stroke="url(#paint53_linear_1771_24552)"/><path d="m1.4919 120.6c28.72-5.882 57.615 4.19 85.728-5.96 21.083-7.616 39.112-20.608 60.659-27.357 21.032-6.5898 45.04-6.3745 67.033-9.3685 21.042-2.8695 41.112-7.5036 59.268-17.332 19.144-10.344 40.658-14.04 63.14-13.696 12.254 0.186 24.484 2.6314 36.676 2.5795 11.021-0.0504 21.637-3.0977 31.416-7.2599 10.806-4.6012 20.688-10.66 30.326-16.875 10.369-6.6863 20.639-15.28 32.484-19.895 25.372-9.8831 56.584-6.5075 79.763-20.781" stroke="url(#paint54_linear_1771_24552)"/><path d="m1.2517 119.94c28.833-5.912 57.811 4.261 86.069-5.866 21.128-7.573 39.336-20.388 60.96-26.999 21.06-6.4412 44.965-6.1007 66.916-9.1416 21.033-2.9173 40.955-7.7875 58.849-17.971 19.173-10.911 40.921-14.126 63.686-13.436 12.283 0.3776 24.63 2.9408 36.857 2.8503 10.972-0.0841 21.497-3.2671 31.123-7.552 10.727-4.7755 20.476-11.017 30.007-17.377 10.243-6.8409 20.453-15.619 32.303-20.267 25.297-9.928 56.855-5.4003 79.814-19.935" stroke="url(#paint55_linear_1771_24552)"/><path d="m1.0469 119.38c28.943-5.941 57.981 4.328 86.361-5.792 21.148-7.538 39.521-20.187 61.206-26.687 21.084-6.3066 44.886-5.8183 66.824-8.8956 21.033-2.95 40.835-8.0383 58.477-18.572 19.208-11.472 41.131-14.24 64.187-13.207 12.293 0.5527 24.745 3.2217 37.007 3.1005 10.931-0.1058 21.357-3.4002 30.863-7.7982 10.652-4.9334 20.287-11.34 29.72-17.834 10.135-6.9789 20.282-15.896 32.152-20.589 25.208-10.002 57.139-4.3516 79.873-19.196" stroke="url(#paint56_linear_1771_24552)"/><path d="m0.87554 118.91c28.807-5.904 57.766 4.386 86.038-5.53 22.338-7.833 41.756-21.378 64.971-27.428 19.851-5.174 41.8-4.7952 62.254-7.5836 21.732-2.9636 41.597-8.3662 59.688-19.335 20.067-12.148 42.16-14.508 66.344-12.936 10.84 0.7022 21.661 2.7235 32.497 3.1983 11.467 0.5018 22.638-2.8399 32.556-7.482 11.255-5.2662 21.323-12.245 31.197-19.245 9.947-7.071 20.018-15.971 31.841-20.59 25.005-9.7522 57.07-3.2777 79.355-18.335" stroke="url(#paint57_linear_1771_24552)"/><path d="m0.74163 118.54c28.874-5.947 57.876 4.45 86.226-5.49 22.344-7.838 41.929-21.232 65.17-27.187 19.866-5.0874 41.771-4.5227 62.215-7.3048 21.749-2.961 41.543-8.5479 59.404-19.854 20.103-12.731 42.224-14.682 66.717-12.797 10.839 0.8336 21.7 2.8872 32.564 3.3584 11.445 0.511 22.543-2.8836 32.364-7.6125 11.2-5.3926 21.161-12.528 30.962-19.625 9.897-7.1656 19.941-16.128 31.769-20.821 24.912-9.861 57.383-2.3663 79.404-17.792" stroke="url(#paint58_linear_1771_24552)"/><path d="m0.64457 118.27c28.921-5.99 57.94 4.512 86.358-5.482 22.345-7.86 42.036-21.108 65.337-26.993 19.881-5.0226 41.76-4.2444 62.204-7.0041 21.772-2.931 41.537-8.6879 59.14-20.317 20.136-13.298 42.203-14.9 66.998-12.741 10.854 0.9419 21.755 3.0362 32.639 3.5417 11.444 0.5292 22.433-2.8684 32.213-7.6846 22.594-11.134 39.064-31.452 62.513-40.943 24.799-10.037 57.704-1.5668 79.434-17.394" stroke="url(#paint59_linear_1771_24552)"/><path d="m0.5836 118.1c28.954-6.035 58.002 4.568 86.434-5.488 22.332-7.904 42.151-21.031 65.46-26.859 19.904-4.9705 41.773-3.9578 62.226-6.6726 21.794-2.8935 41.582-8.791 58.947-20.73 20.152-13.858 42.071-15.17 67.193-12.742 10.801 1.0358 21.788 3.299 32.651 3.676 11.535 0.3958 22.245-2.7565 32.106-7.6924 22.577-11.304 38.922-31.603 62.381-41.328 24.686-10.243 58.059-0.84235 79.447-17.107" stroke="url(#paint60_linear_1771_24552)"/><path d="m0.55972 118.04c28.968-6.088 58.01 4.625 86.442-5.523 22.311-7.963 42.203-20.978 65.568-26.789 19.915-4.952 41.806-3.6542 62.276-6.3084 21.817-2.8306 41.678-8.8454 58.805-21.088 20.145-14.408 41.832-15.494 67.281-12.806 23.246 2.4515 43.305 6.9577 64.675-3.8559 22.599-11.437 38.887-31.586 62.341-41.586 24.567-10.476 58.412-0.21165 79.505-16.949" stroke="url(#paint61_linear_1771_24552)"/></g></g></svg>
