<?xml version="1.0" encoding="UTF-8"?>
<!-- Generator: Adobe Illustrator 24.0.0, SVG Export Plug-In . SVG Version: 6.00 Build 0)  -->
<svg width="30" height="30" version="1.1" viewBox="0 0 30 30" xml:space="preserve" xmlns="http://www.w3.org/2000/svg">
<style type="text/css">
	.st0{fill:url(#SVGID_1_);}
	.st1{fill:#00D1FF;}
</style>
<g transform="matrix(.15627 0 0 .15627 40.259 -15.262)">
	<g transform="matrix(.26458 0 0 .26458 -257.63 97.669)">
		
			<linearGradient id="SVGID_1_" x1="1621.5" x2="1621.5" y1="225.49" y2="-30.511" gradientTransform="matrix(.75 0 0 -.75 -853.27 169.11)" gradientUnits="userSpaceOnUse">
			<stop stop-color="#090220" offset="0"/>
			<stop stop-color="#170659" offset="1"/>
		</linearGradient>
		<circle class="st0" cx="362.8" cy="362.8" r="362.8" fill="url(#SVGID_1_)"/>
		
			<path class="st1" d="m243.3 272.6c-2.9-3.6-7.3-5.6-12-5.6h-96.9c-0.8 0-1.5-0.3-2.1-0.8-0.5-0.5-0.8-1.1-0.8-1.8v-65.3c0-0.7 0.3-1.3 0.8-1.8 0.6-0.6 1.3-0.9 2.1-0.8h102.4c25.8 0 48.1 10.6 66.9 31.7l24.9 30.4-48.5 59.1zm179-44.7c18.7-20.9 41.1-31.4 67.2-31.4h102.1c0.7-0.1 1.4 0.2 1.9 0.6 0.5 0.5 0.7 1.2 0.6 2v65.3c0 0.7-0.2 1.3-0.6 1.8-0.5 0.6-1.2 0.9-1.9 0.8h-96.9c-4.6-0.1-9 2-12 5.6l-71.4 86.9 71.7 87.5c2.9 3.3 7.2 5.3 11.6 5.2h96.9c0.7-0.1 1.5 0.3 1.9 0.8 0.4 0.6 0.7 1.4 0.6 2.1v65.3c0 0.7-0.2 1.3-0.6 1.8-0.5 0.6-1.2 0.9-1.9 0.8h-102c-26.1 0-48.3-10.6-66.9-31.7l-59.4-72.5-59.4 72.5c-18.7 21.1-41.1 31.7-67.2 31.7h-102.2c-0.7 0.1-1.5-0.3-1.9-0.8-0.5-0.6-0.7-1.4-0.6-2.1v-65.3c0-0.7 0.2-1.3 0.6-1.8 0.5-0.6 1.2-0.9 1.9-0.8h96.9c4.6 0 9-2.1 12-5.6l70.1-85.6z"/>
		
	</g>
</g>
</svg>
