<?xml version="1.0" encoding="UTF-8"?>
<svg width="30" height="30" fill="none" version="1.1" viewBox="0 0 30 30" xmlns="http://www.w3.org/2000/svg">
 <g stroke-width="1.25">
  <circle cx="15" cy="15" r="15" fill="#ffffe9"/>
  <path d="m21.72 8.3463s0.89375-2.2189 0.77812-2.7274c-0.10788-0.49309-0.1155-0.64718-0.9245-1.2481-0.32362 0.14639-0.9015 0.35441-1.3714 0.26196-0.6935-0.13098-1.0479-0.36982-1.3791-0.66259-0.33138-0.29278-0.5085-0.72422-0.53938-0.97848-0.007625-0.061638 0.061625-0.10786 0.11562-0.06935 0.285 0.20802 0.51612 0.58555 1.3251 0.85521 0.46225 0.15409 0.83988 0.10786 1.071 0.030813-1.0248-0.70881-2.5118-1.6796-3.3978-1.9724-1.1325-0.36981-1.641 0.35441-1.641 0.35441l-1.0632 1.6796s1.7874 0.26195 3.6134 1.2866c1.8182 1.017 3.4131 3.1897 3.4131 3.1897z" fill="#3800d6"/>
  <path d="m24.571 10.866c-0.2235 0.03083-0.5625 0.03083-1.017-0.08475-1.7798-0.50079-2.8739-3.4362-5.9556-5.2853-4.9232-2.5425-7.5658-0.24654-7.5658-0.24654-0.339 0.23112 0.0077 0.37751 0.0077 0.37751l1.6179 0.81669 0.76274 0.40062s-0.48538 0.62408-1.4716 0.14639c-0.32358-0.13868-0.97075-0.1772-1.4716 0.26966-0.54701 0.30048-0.30818 1.1711-0.70881 1.7258-0.39292 0.55472-1.1788 0.46228-1.2635 1.2635-0.069338 0.81669 0.57784 0.97078 0.59325 1.5794 0.0154 0.60866-0.20802 0.95541-0.26966 1.1172-0.023112 0.06938-0.038525 0.15412-0.038525 0.23888 0.0077 0.1155 0.061637 0.23112 0.13869 0.3235 0.061637 0.06937 0.11556 0.11562 0.1772 0.15412 0.26195 0.17725 0.48539 0.40838 0.63178 0.68575 0.023112 0.04625 0.046225 0.09238 0.077037 0.13862 0.023112 0.0385 0.046225 0.08475 0.07705 0.13875 0.1695 0.30038 0.23884 0.65488 0.1772 1.0015-0.015413 0.0925-0.0077 0.20038 0.023112 0.3005 0.061637 0.18488 0.22344 0.32362 0.41605 0.3775 0.28506 0.06938 0.53161 0.23888 0.70111 0.47775 0.0154 0.01537 0.02311 0.0385 0.03851 0.05388 0.23114 0.32362 0.18491 0.83212 0.27736 1.2019 0.09246 0.36988 0.40064 0.4855 0.8475 0.73975 0.44686 0.25425 0.53932 0.65488 0.35441 0.8475-0.18491 0.1925-1.279-0.27738-1.7181 0.2465-0.32359 0.3005-0.1849 0.49312-0.3467 1.0632-0.1618 0.57775-0.65489 0.154-0.91684 0.55462-0.26195 0.40075-0.30048 0.83212-0.1695 1.6874 0.13098 0.85512 0.96306 2.034 0.96306 2.034s-0.44686-1.5564 0.52391-2.8892c0.82438-0.97075 1.4562-1.1018 2.3884-1.1171 0.94-0.02313 2.3268 0.82438 2.6119 2.4885 0.14638 1.1018-0.45462 1.7412-0.50088 1.8029-0.10788 0.12325-0.99388 1.1018-2.1726 0.44688-0.32358-0.22338-0.60866-0.4545-0.80127-0.90138-0.13868-0.40838-0.1772-0.95538 0.05394-1.3252 0.19261-0.30812 0.50079-0.40062 0.59325-0.40825 0.13868-0.0155 0.4391-0.0077 0.63172 0.13862 0.19262 0.14638 0.40062 0.36212 0.36212 0.73188-0.0385 0.36988-0.42375 0.47775-0.57012 0.44688-0.12325-0.02313-0.0385-0.0076-0.0076 0-0.2389-0.01538-0.34676-0.20025-0.39299-0.33125-0.0077-0.03087-0.05394-0.02313-0.06164 0.0078-0.06934 0.5085 0.31588 0.832 0.547 0.886 0.25425 0.05387 0.63175 0.04625 0.94-0.26962 0.26962-0.26975 0.416-0.50088 0.416-1.0941 0-0.48538-0.20025-0.82438-0.53162-1.1171-0.43138-0.40062-1.0015-0.55475-1.3945-0.52388-0.36982 0.03075-1.017 0.18488-1.4408 0.85512-0.39292 0.61638-0.56242 1.4639-0.23114 2.4115l0.01541 0.03087c0.75505 1.7644 2.5193 2.2112 3.7367 2.2112 0.2465 0 0.47-0.0155 0.65488-0.04625 0.0385-0.0078 0.90912-0.13875 1.7566-0.66262 1.0478-0.69338 1.6719-1.695 1.6719-3.2436 0-2.0571-0.90138-3.4285-2.7505-5.5704-0.35438-0.43912-1.7951-2.2189-2.0571-2.5656-1.2866-1.6641-2.7274-3.6211-2.0109-5.108 0.02311-0.04622 0.04622-0.08475 0.06934-0.13098 1.0709-1.9647 4.0911-1.4793 3.4285-1.356-1.148 0.19261-1.8338 0.70111-2.0418 0.92454-0.208 0.22344-0.3235 0.41605-0.46225 0.77816-0.23882 0.59325-0.04621 1.5101 0.46225 2.3113 2.2112 3.1358 5.478 7.042 5.8786 7.9819 0.51612 1.1865 0.59325 2.1265 0.5855 2.7044-0.0077 0.57775-0.14638 1.5024-0.14638 1.5024s0.76275-0.60875 1.1249-1.3484 0.42375-1.094 0.31588-1.3714c-0.11562-0.27738-0.40062-0.285-0.51625-0.73962-0.1155-0.4545 0.208-0.85525-0.131-1.5794-0.14638-0.31588-0.9245-0.77825-1.3251-1.2868s-1.1326-1.4176-1.6796-2.1495c-0.98612-1.3098-1.3098-1.7566-1.8799-2.4962 0.61638 0.18488 1.3869 0.43912 3.1589-0.38525 1.641 0.83975 2.7659 0.79362 3.1589 0.7705 0.39288-0.02313 0.76275-0.20038 1.0478-0.42375 0.185-0.14638 0.32362-0.43925 0.40838-0.63175 0.03088-0.06938-0.0385-0.131-0.10788-0.10788-1.3791 0.57012-2.6504 0.10788-4.2144-0.76275l-0.27738-0.15412-0.27738 0.14638c-1.641 0.87838-3.3669 0.19262-3.5209 0.131-0.06175-0.030875-0.53162-0.27738-0.73975-0.69344-0.208-0.41604-0.25412-0.8552-0.10012-1.225 0.12325-0.30048 0.41612-0.5008 0.89375-0.60095 0.39288-0.04622 0.90138 0.10015 1.3098 0.26195 0.0925 0.03852 0.17725-0.05392 0.13875-0.13868-0.04625-0.12328-0.07712-0.25425-0.07712-0.39294 0-0.23114 0.07712-0.43915 0.20038-0.60865l0.547 0.25424c-0.0925 0.092462-0.14638 0.23114-0.131 0.38524 0.02313 0.20031 0.19262 0.36981 0.393 0.39292 0.26962 0.03852 0.493-0.1618 0.51612-0.41605l0.51625 0.23885c-0.0925 0.37751-0.38525 0.67029-0.76275 0.76275-0.07713 0.0154-0.08475 0.11556-0.0078 0.13868 0.70112 0.3313 2.7505 1.2866 2.7505 1.2866s1.1865 0.66256 2.2266 0.53156c1.0016-0.05388 1.4485-0.84744 0.85525-0.7704-0.59325 0.07705-1.9955-0.53161-1.9955-0.53161l-0.94-0.43915 0.393-0.60866s1.3406 0.76275 2.5271 1.0247c0.78575 0.1695 1.3174-0.27736 1.5871-0.60095 0.08475-0.08475 0.0076-0.22344-0.10788-0.20802zm-10.971-2.6735c-0.50088 0.061638-1.2636 0.29276-1.695 0.50079-0.16179 0.07705-0.30048 0.15409-0.41604 0.22344-0.37752 0.24654-0.71652 0.61636-0.98619 1.1249-1.0555 2.0494 0.87832 4.5611 2.4346 6.5796 0.262 0.339 0.50075 0.65488 0.7165 0.94775 0.33138 0.4545 0.69338 0.90138 1.0479 1.3251 0.90912 1.1171 1.9108 2.3036 2.3421 3.6211 0.11562 0.46225 0.131 0.89375 0.077 1.2405-0.18488 1.0786-1.1248 1.4484-1.1248 1.4484 0.13862-0.44688 0.21562-1.0246 0.13088-1.6872v-0.01538c-0.285-1.5486-1.5409-2.9201-1.5409-2.9201-0.3005-0.40062-0.624-0.81662-0.886-1.1556-2.6426-3.3978-2.9046-3.7829-3.5287-4.9155l-0.0077-0.01537c-0.0154-0.03087-0.03851-0.06938-0.06162-0.10788-0.36213-0.60863-1.3329-2.2343-0.90916-3.937 0.10016-0.39294 0.27736-0.74734 0.53161-1.0555 1.5486-2.0109 4.5149-1.3252 3.8754-1.2019z" fill="#3800d6"/>
 </g>
</svg>
