<?xml version="1.0" encoding="UTF-8"?>
<!-- Created with Inkscape (http://www.inkscape.org/) -->
<svg width="4.2333mm" height="4.2333mm" version="1.1" viewBox="0 0 4.2333 4.2333" xml:space="preserve" xmlns="http://www.w3.org/2000/svg"><g transform="translate(-96.315 -126.52)"><g transform="matrix(.022051 0 0 .048999 101.23 112.33)">
	<g transform="matrix(.26458 0 0 .26458 -257.63 97.669)">
		
			<linearGradient id="SVGID_1_" x1="1621.5" x2="1621.5" y1="225.49" y2="-30.511" gradientTransform="matrix(.75 0 0 -.75 -853.27 169.11)" gradientUnits="userSpaceOnUse">
			<stop stop-color="#090220" offset="0"/>
			<stop stop-color="#170659" offset="1"/>
		</linearGradient>
		
		
			<path class="st1" d="m306.85 801.72c-4.5485-3.6-11.45-5.6-18.821-5.6h-151.98c-1.2548 0-2.3527-0.3-3.2937-0.8-0.78422-0.5-1.2548-1.1-1.2548-1.8v-65.3c0-0.7 0.47053-1.3 1.2548-1.8 0.94107-0.6 2.039-0.9 3.2937-0.8h160.61c40.466 0 75.442 10.6 104.93 31.7l39.054 30.4-76.069 59.1zm280.75-44.7c29.33-20.9 64.463-31.4 105.4-31.4h160.14c1.0979-0.1 2.1958 0.2 2.98 0.6 0.78422 0.5 1.0979 1.2 0.94106 2v65.3c0 0.7-0.31369 1.3-0.94106 1.8-0.78423 0.6-1.8821 0.9-2.98 0.8h-151.98c-7.2148-0.1-14.116 2-18.821 5.6l-111.99 86.9 112.46 87.5c4.5485 3.3 11.293 5.3 18.194 5.2h151.98c1.0979-0.1 2.3527 0.3 2.98 0.8 0.62738 0.6 1.0979 1.4 0.94107 2.1v65.3c0 0.7-0.31369 1.3-0.94107 1.8-0.78422 0.6-1.8821 0.9-2.98 0.8h-159.98c-40.936 0-75.756-10.6-104.93-31.7l-93.165-72.5-93.165 72.5c-29.33 21.1-64.463 31.7-105.4 31.7h-160.29c-1.0979 0.1-2.3527-0.3-2.98-0.8-0.78422-0.6-1.0979-1.4-0.94106-2.1v-65.3c0-0.7 0.31368-1.3 0.94106-1.8 0.78422-0.6 1.8821-0.9 2.98-0.8h151.98c7.2148 0 14.116-2.1 18.821-5.6l109.95-85.6z" fill="#fff" stroke-width="1.2524"/>
		
	</g>
</g></g><style type="text/css">
	.st0{fill:url(#SVGID_1_);}
	.st1{fill:#00D1FF;}
</style></svg>
