<svg width="47" height="37" viewBox="0 0 47 37" fill="none" xmlns="http://www.w3.org/2000/svg">
<g clip-path="url(#clip0_1771_24408)">
<path d="M11.3117 8.84207C10.9844 8.42709 10.5813 8.21911 10.1018 8.21911H0.293902C0.206787 8.21911 0.135512 8.18856 0.0818349 8.12744C0.0272783 8.06731 0 7.9993 0 7.92636V0.601651C0 0.528709 0.0272783 0.461682 0.0818349 0.400569C0.135512 0.339456 0.206787 0.308899 0.293902 0.308899H10.6579C13.2731 0.308899 15.5293 1.49371 17.4256 3.86135L19.9431 7.26693L15.0392 13.8957L11.3117 8.84207ZM29.4245 3.82488C31.3208 1.48089 33.5875 0.308899 36.2247 0.308899H46.5562C46.6433 0.308899 46.7084 0.333541 46.7524 0.38184C46.7955 0.431125 46.8175 0.504067 46.8175 0.601651V7.92636C46.8175 7.9993 46.7955 8.06731 46.7524 8.12744C46.7084 8.18856 46.6433 8.21911 46.5562 8.21911H36.7483C36.2687 8.21911 35.8657 8.42709 35.5384 8.84207L28.3131 18.5837L35.5709 28.3983C35.8983 28.7896 36.2898 28.9848 36.7483 28.9848H46.5562C46.6433 28.9848 46.7084 29.0153 46.7524 29.0764C46.7955 29.1376 46.8175 29.2174 46.8175 29.314V36.6387C46.8175 36.7117 46.7955 36.7797 46.7524 36.8398C46.7084 36.9009 46.6433 36.9315 46.5562 36.9315H36.2247C33.5875 36.9315 31.3313 35.7476 29.4571 33.379L23.4417 25.249L17.4256 33.379C15.5293 35.7476 13.2625 36.9315 10.6253 36.9315H0.293902C0.206787 36.9315 0.140791 36.9009 0.097674 36.8398C0.0536767 36.7787 0.032558 36.6998 0.032558 36.6013V29.2765C0.032558 29.2036 0.0536767 29.1366 0.097674 29.0755C0.140791 29.0143 0.206787 28.9838 0.293902 28.9838H10.1018C10.5593 28.9838 10.9624 28.7768 11.3117 28.3608L18.4058 18.7661L29.4245 3.82488Z" fill="#00DCFF"/>
<path d="M11.3117 8.84207C10.9844 8.42709 10.5813 8.21911 10.1018 8.21911H0.293902C0.206787 8.21911 0.135512 8.18856 0.0818349 8.12744C0.0272783 8.06731 0 7.9993 0 7.92636V0.601651C0 0.528709 0.0272783 0.461682 0.0818349 0.400569C0.135512 0.339456 0.206787 0.308899 0.293902 0.308899H10.6579C13.2731 0.308899 15.5293 1.49371 17.4256 3.86135L19.9431 7.26693L15.0392 13.8957L11.3117 8.84207ZM29.4245 3.82488C31.3208 1.48089 33.5875 0.308899 36.2247 0.308899H46.5562C46.6433 0.308899 46.7084 0.333541 46.7524 0.38184C46.7955 0.431125 46.8175 0.504067 46.8175 0.601651V7.92636C46.8175 7.9993 46.7955 8.06731 46.7524 8.12744C46.7084 8.18856 46.6433 8.21911 46.5562 8.21911H36.7483C36.2687 8.21911 35.8657 8.42709 35.5384 8.84207L28.3131 18.5837L35.5709 28.3983C35.8983 28.7896 36.2898 28.9848 36.7483 28.9848H46.5562C46.6433 28.9848 46.7084 29.0153 46.7524 29.0764C46.7955 29.1376 46.8175 29.2174 46.8175 29.314V36.6387C46.8175 36.7117 46.7955 36.7797 46.7524 36.8398C46.7084 36.9009 46.6433 36.9315 46.5562 36.9315H36.2247C33.5875 36.9315 31.3313 35.7476 29.4571 33.379L23.4417 25.249L17.4256 33.379C15.5293 35.7476 13.2625 36.9315 10.6253 36.9315H0.293902C0.206787 36.9315 0.140791 36.9009 0.097674 36.8398C0.0536767 36.7787 0.032558 36.6998 0.032558 36.6013V29.2765C0.032558 29.2036 0.0536767 29.1366 0.097674 29.0755C0.140791 29.0143 0.206787 28.9838 0.293902 28.9838H10.1018C10.5593 28.9838 10.9624 28.7768 11.3117 28.3608L18.4058 18.7661L29.4245 3.82488Z" fill="#00D1FF"/>
</g>
<defs>
<clipPath id="clip0_1771_24408">
<rect width="46.8175" height="36.6236" fill="white" transform="translate(0 0.308899)"/>
</clipPath>
</defs>
</svg>
