<svg width="477" height="104" viewBox="0 0 477 104" fill="none" xmlns="http://www.w3.org/2000/svg">
<path d="M-92.3135 118.194C-68.6874 123.557 -44.3983 130.325 -20.606 133.393C8.77902 137.184 37.9505 135.784 67.3248 138.854C91.2217 141.352 111.2 149.078 132.139 161.776C149.415 172.254 166.295 183.187 186.015 187.913C206.855 192.91 226.912 188.182 247.052 186.514C270.308 184.587 289.137 190.425 309.503 203.896C328.898 216.723 346.589 231.545 369.825 236.247C398.557 242.061 426.947 237.114 455.74 243.344" stroke="url(#paint0_linear_1771_24640)" stroke-opacity="0.25" stroke-width="2" stroke-miterlimit="10"/>
<path opacity="0.5" d="M-91.675 113.55C-68.6531 118.764 -44.7554 125.523 -21.5431 128.066C9.17706 131.432 39.5304 129.037 70.2203 131.594C94.67 133.629 113.372 141.962 133.569 156.576C149.542 168.134 165.428 180.897 184.839 185.811C206.66 191.33 228.599 184.249 249.34 181.553C260.2 180.161 271.588 179.134 282.754 182.518C293.682 185.833 303.548 192.476 312.552 199.389C330.706 213.303 347.868 230.669 371.156 234.958C399.832 240.237 427.608 233.022 456.388 238.714" stroke="url(#paint1_linear_1771_24640)" stroke-opacity="0.25" stroke-width="2" stroke-miterlimit="10"/>
<path d="M-91.0288 108.992C-68.5654 114.067 -45.0643 120.768 -22.434 122.858C9.53173 125.822 40.9559 122.467 72.8605 124.532C97.9353 126.152 115.416 135.03 134.756 151.509C149.419 164.003 164.318 178.583 183.516 183.726C206.233 189.808 230.299 180.369 251.551 176.77C262.684 174.882 274.934 173.009 286.573 176.695C297.482 180.15 307.121 187.615 315.623 195.014C332.574 209.771 349.179 229.724 372.58 233.626C401.201 238.393 428.25 228.952 457.021 234.141" stroke="url(#paint2_linear_1771_24640)" stroke-opacity="0.25" stroke-width="2" stroke-miterlimit="10"/>
<path opacity="0.5" d="M-90.409 104.51C-68.4811 109.453 -45.3305 116.073 -23.2374 117.814C9.83482 120.415 42.2145 116.168 75.1795 117.778C87.7322 118.394 99.5178 119.783 110.992 126.351C120.34 131.704 128.189 139.144 135.725 146.574C149.207 159.86 163.131 176.13 182.25 181.521C205.754 188.15 231.955 176.491 253.65 172.129C265.026 169.841 278.123 167.173 290.189 171.126C301.132 174.703 310.527 182.914 318.562 190.738C334.412 206.165 350.456 228.517 374.031 232.092C402.607 236.42 428.878 224.867 457.655 229.645" stroke="url(#paint3_linear_1771_24640)" stroke-opacity="0.25" stroke-width="2" stroke-miterlimit="10"/>
<path opacity="0.5" d="M-89.799 100.101C-68.3315 104.935 -45.4922 111.478 -23.8779 112.958C10.0769 115.283 43.1764 110.2 77.0269 111.455C89.6419 111.923 101.419 113.117 112.762 120.187C121.96 125.943 129.379 133.912 136.437 141.793C148.931 155.73 161.982 173.444 181.166 179.066C193.426 182.66 206.672 179.591 218.039 177.027C230.65 174.183 242.911 170.461 255.519 167.609C267.106 164.991 280.907 161.686 293.363 165.879C304.371 169.582 313.524 178.356 321.184 186.541C336.132 202.538 351.543 226.859 375.383 230.196C403.951 234.203 429.455 220.728 458.264 225.239" stroke="url(#paint4_linear_1771_24640)" stroke-opacity="0.25" stroke-width="2" stroke-miterlimit="10"/>
<path opacity="0.5" d="M-89.1994 95.7725C-68.1166 100.518 -45.5215 107.009 -24.3061 108.333C10.276 110.496 43.8561 104.66 78.3126 105.651C90.8843 106.005 102.764 107.11 113.942 114.462C123.093 120.482 130.192 128.916 136.907 137.151C148.725 151.639 161.046 170.408 180.448 176.216C193.034 179.974 206.71 176.496 218.284 173.682C231.35 170.499 244.02 166.374 257.086 163.185C268.866 160.306 283.115 156.596 295.901 160.935C307.02 164.711 315.947 173.85 323.325 182.341C337.672 198.844 352.33 224.486 376.565 227.773C405.151 231.651 429.986 216.473 458.86 220.939" stroke="url(#paint5_linear_1771_24640)" stroke-opacity="0.25" stroke-width="2" stroke-miterlimit="10"/>
<path opacity="0.5" d="M-88.607 91.5219C-67.8227 96.2104 -45.372 102.693 -24.4652 103.976C10.4146 106.116 44.1768 99.6137 78.9171 100.482C91.321 100.798 103.422 101.922 114.428 109.267C123.643 115.416 130.584 124.181 137.12 132.659C148.65 147.639 160.459 166.931 180.278 172.794C193.148 176.603 206.867 173.066 218.627 170.046C231.992 166.626 244.926 162.203 258.289 158.775C270.239 155.709 284.56 151.903 297.614 156.294C308.87 160.079 317.611 169.305 324.848 178.055C338.985 195.143 352.726 221.14 377.518 224.576C406.166 228.547 430.506 211.972 459.468 216.684" stroke="url(#paint6_linear_1771_24640)" stroke-opacity="0.25" stroke-width="2" stroke-miterlimit="10"/>
<path d="M-88.0282 87.3399C-67.3114 91.9481 -44.9555 98.5775 -24.1273 99.7747C10.5389 101.755 43.95 94.748 78.4421 95.394C90.8229 95.6291 102.905 96.8348 113.911 104.123C123.264 110.325 130.349 119.209 136.984 127.796C148.734 143.005 160.663 162.537 180.714 168.683C193.656 172.649 207.288 169.176 219.109 166.079C232.507 162.566 245.438 157.998 258.832 154.481C270.85 151.321 285.09 147.595 298.229 152.105C309.55 155.992 318.232 165.219 325.473 174.049C339.65 191.34 353.112 216.971 378.08 220.577C406.785 224.73 430.985 207.519 460.033 212.492" stroke="url(#paint7_linear_1771_24640)" stroke-opacity="0.25" stroke-width="2" stroke-miterlimit="10"/>
<path d="M-87.4623 83.2512C-66.6446 87.7822 -44.4104 94.7828 -23.4767 95.756C10.6231 97.3406 43.3579 89.9387 77.2746 90.1982C89.8214 90.2915 101.576 91.534 112.745 98.8914C122.274 105.162 129.654 114.038 136.575 122.629C148.789 137.808 161.293 157.64 181.267 164.341C194.081 168.64 207.762 165.159 219.487 162.045C232.729 158.529 245.481 153.913 258.719 150.388C270.719 147.193 284.952 143.518 298.034 148.3C309.288 152.412 318.097 161.772 325.463 170.552C339.761 187.587 353.755 212.915 378.419 216.512C407.189 220.705 431.475 203.385 460.587 208.4" stroke="url(#paint8_linear_1771_24640)" stroke-opacity="0.25" stroke-width="2" stroke-miterlimit="10"/>
<path d="M-86.9017 79.2343C-65.9601 83.7501 -43.8583 91.2566 -22.7692 92.042C10.6781 93.2872 42.6352 85.5134 75.8817 85.4471C88.5539 85.4142 100.02 86.7279 111.331 94.0564C121.019 100.335 128.76 109.106 135.981 117.712C148.681 132.836 161.874 152.765 181.76 159.962C194.414 164.545 207.977 161.175 219.6 158.062C232.623 154.564 245.122 149.937 258.136 146.441C270.104 143.227 284.184 139.716 297.171 144.731C308.405 149.072 317.386 158.504 324.948 167.252C339.498 184.057 354.121 208.975 378.595 212.558C407.489 216.79 431.912 199.354 461.149 204.405" stroke="url(#paint9_linear_1771_24640)" stroke-opacity="0.25" stroke-width="2" stroke-miterlimit="10"/>
<path d="M-86.3519 75.2931C-65.267 79.8528 -43.2634 87.9873 -22.0022 88.607C10.7143 89.567 41.8198 81.4442 74.326 81.0763C87.0657 80.9326 98.2977 82.3509 109.725 89.5694C119.607 95.8098 127.698 104.459 135.252 113.015C148.579 128.064 162.345 147.878 182.223 155.563C194.688 160.38 207.988 157.23 219.5 154.131C232.239 150.698 244.437 146.066 257.169 142.625C269.095 139.398 282.876 136.152 295.753 141.369C307.011 145.935 316.201 155.386 324.031 164.098C338.948 180.688 354.283 205.108 378.626 208.671C407.698 212.926 432.305 195.377 461.719 200.458" stroke="url(#paint10_linear_1771_24640)" stroke-opacity="0.25" stroke-width="2" stroke-miterlimit="10"/>
<path d="M-85.8171 71.4285C-64.568 76.0793 -42.6717 84.9371 -21.1995 85.4217C10.7249 86.1436 40.9269 77.6773 72.6277 77.0824C85.3697 76.8355 96.4293 78.3794 107.945 85.4165C118.03 91.5812 126.468 100.073 134.396 108.506C148.436 123.443 162.743 142.983 182.637 151.124C206.644 160.953 234.505 144.694 255.851 138.905C267.734 135.679 281.105 132.782 293.839 138.181C305.159 142.985 314.571 152.414 322.717 161.095C338.097 177.482 354.21 201.331 378.493 204.869C407.782 209.142 432.618 191.476 462.244 196.58" stroke="url(#paint11_linear_1771_24640)" stroke-opacity="0.25" stroke-width="2" stroke-miterlimit="10"/>
<path d="M-85.2887 67.6446C-63.865 72.4254 -42.0751 82.0857 -20.3651 82.4701C10.7256 82.9975 39.966 74.2403 70.8169 73.426C83.5314 73.0934 94.4583 74.7831 106.042 81.5812C116.343 87.6326 125.143 95.9163 133.445 104.226C148.208 118.994 163.078 138.119 183.015 146.716C206.592 156.875 233.297 141.006 254.25 135.3C265.835 132.153 279.219 129.371 291.529 135.166C302.959 140.544 312.458 149.426 321.116 158.234C337.03 174.416 353.975 197.638 378.261 201.157C407.804 205.44 432.895 187.657 462.775 192.772" stroke="url(#paint12_linear_1771_24640)" stroke-opacity="0.25" stroke-width="2" stroke-miterlimit="10"/>
<path d="M-84.7711 63.9342C-63.1604 68.8691 -41.4674 79.4063 -19.4988 79.6808C10.725 80.0568 38.9761 71.0088 68.9453 70.0362C120.994 68.3352 140.516 122.951 183.366 142.335C206.463 152.79 231.859 137.413 252.431 131.832C263.961 128.713 276.777 126.401 288.905 132.324C300.452 137.962 310.215 146.756 319.274 155.527C335.78 171.52 353.599 194.062 377.939 197.56C407.76 201.853 433.134 183.95 463.294 189.087" stroke="url(#paint13_linear_1771_24640)" stroke-opacity="0.25" stroke-width="2" stroke-miterlimit="10"/>
<path d="M-84.2642 60.3032C-62.4641 65.4322 -40.8553 76.867 -18.6166 77.0629C10.7234 77.3237 37.9776 68.0122 67.0351 66.8997C118.047 64.9509 141.647 118.092 183.694 137.98C206.331 148.694 230.247 133.917 250.442 128.448C261.924 125.339 274.119 123.575 286.049 129.596C297.724 135.498 307.78 144.194 317.257 152.919C334.393 168.697 353.104 190.554 377.553 194.03C407.672 198.316 433.348 180.31 463.804 185.457" stroke="url(#paint14_linear_1771_24640)" stroke-opacity="0.25" stroke-width="2" stroke-miterlimit="10"/>
<path d="M-83.767 56.7494C-61.7705 62.0782 -40.2425 74.4438 -17.7171 74.5827C10.735 74.7591 36.9632 65.1956 65.1345 63.9851C115.101 61.8368 142.754 113.294 184.006 133.687C206.178 144.647 228.519 130.506 248.356 125.152C259.795 122.066 271.319 120.879 283.044 126.961C294.859 133.108 305.214 141.732 315.124 150.394C332.91 165.96 352.519 187.106 377.096 190.565C407.519 194.841 433.515 176.728 464.281 181.884" stroke="url(#paint15_linear_1771_24640)" stroke-opacity="0.25" stroke-width="2" stroke-miterlimit="10"/>
<path d="M-83.2816 53.2725C-61.0929 58.8032 -39.6272 72.1073 -16.7984 72.2112C10.7813 72.3327 36.0126 62.534 63.2945 61.2494C112.224 58.944 143.84 108.595 184.303 129.466C206.015 140.665 226.734 127.179 246.23 121.938C257.619 118.877 268.506 118.296 280.013 124.451C291.97 130.848 302.639 139.386 312.974 147.987C331.412 163.343 351.913 183.772 376.649 187.213C407.399 191.488 433.699 173.276 464.78 178.424" stroke="url(#paint16_linear_1771_24640)" stroke-opacity="0.25" stroke-width="2" stroke-miterlimit="10"/>
<path d="M-82.8065 49.8757C-60.4326 55.603 -39.0187 69.8264 -15.9194 69.9059C10.816 69.9962 35.068 59.9773 61.4923 58.6448C109.477 56.2279 144.917 103.991 184.612 125.337C205.867 136.77 224.962 123.938 244.139 118.797C255.477 115.759 265.75 115.79 277.015 121.99C289.113 128.643 300.09 137.11 310.848 145.636C329.923 160.756 351.296 180.496 376.206 183.93C407.27 188.201 433.882 169.862 465.269 175.038" stroke="url(#paint17_linear_1771_24640)" stroke-opacity="0.25" stroke-width="2" stroke-miterlimit="10"/>
<path d="M-82.3415 46.5518C-59.7626 52.4732 -38.4147 67.5766 -15.0316 67.6491C10.9001 67.7284 34.2136 57.5064 59.8285 56.147C106.908 53.6452 145.972 99.4823 184.888 121.301C205.728 132.984 223.193 120.733 242.096 115.72C253.393 112.727 263.051 113.314 274.105 119.571C286.337 126.477 297.616 134.894 308.773 143.335C328.461 158.225 350.67 177.282 375.759 180.699C407.122 184.967 434.031 166.52 465.712 171.702" stroke="url(#paint18_linear_1771_24640)" stroke-opacity="0.25" stroke-width="2" stroke-miterlimit="10"/>
<path d="M-81.8877 43.3081C-59.1123 49.4005 -37.8118 65.3344 -14.1663 65.4132C11.022 65.4989 33.4596 55.0764 58.3092 53.7113C82.4188 52.3858 106.067 65.4979 126.636 78.4353C146.471 90.914 164.945 105.559 185.191 117.39C205.706 129.381 221.474 117.507 240.211 112.697C265.093 106.317 286.891 126.593 306.871 141.074C327.116 155.735 350.113 174.139 375.373 177.544C407.017 181.816 434.209 163.26 466.174 168.456" stroke="url(#paint19_linear_1771_24640)" stroke-opacity="0.25" stroke-width="2" stroke-miterlimit="10"/>
<path d="M-81.4441 40.1381C-58.4693 46.3803 -37.267 63.0573 -13.3231 63.1647C11.191 63.2686 32.8159 52.6716 57.0013 51.3093C80.8946 49.9562 105.238 62.9105 126.002 75.1983C146.334 87.2331 165.322 101.33 185.501 113.618C205.681 125.906 220.027 114.467 238.524 109.73C262.838 103.508 285.475 125.126 305.179 138.847C325.921 153.291 349.653 171.064 375.053 174.47C406.949 178.744 434.398 160.082 466.602 165.286" stroke="url(#paint20_linear_1771_24640)" stroke-opacity="0.25" stroke-width="2" stroke-miterlimit="10"/>
<path d="M-81.0118 37.0479C-57.8309 43.4197 -36.7359 60.7339 -12.5172 60.8716C11.4069 61.0099 32.311 50.2554 55.8653 48.8821C79.5754 47.5196 104.538 60.3131 125.485 72.0174C146.263 83.6327 165.736 97.255 185.819 109.991C195.293 115.998 202.591 117.823 212.908 115.221C221.293 113.105 228.711 108.946 237.089 106.8C248.266 103.931 256.574 105.979 266.986 112.387C279.497 120.094 291.572 128.428 303.76 136.629C324.916 150.836 349.295 168.038 374.812 171.449C406.929 175.741 434.603 156.965 467.038 162.197" stroke="url(#paint21_linear_1771_24640)" stroke-opacity="0.25" stroke-width="2" stroke-miterlimit="10"/>
<path d="M-80.5884 34.0303C-57.1905 40.4521 -36.2436 58.3294 -11.7482 58.5121C11.6958 58.6845 31.9639 47.7275 55.0382 46.4173C78.6274 45.0767 104.102 57.6931 125.206 68.9118C146.309 80.1306 166.231 93.3803 186.181 106.565C195.4 112.657 202.454 114.832 212.683 112.235C220.794 110.176 227.897 106.024 235.992 103.932C247.112 101.056 255.233 103.486 265.438 109.98C277.978 117.96 290.253 126.328 302.704 134.438C324.181 148.424 349.152 165.114 374.709 168.527C407.003 172.842 434.86 153.957 467.453 159.21" stroke="url(#paint22_linear_1771_24640)" stroke-opacity="0.25" stroke-width="2" stroke-miterlimit="10"/>
<path d="M-80.178 31.0974C-56.5553 37.5412 -35.7982 55.8282 -11.0344 56.0581C12.0553 56.265 31.7717 45.0631 54.5117 43.8704C78.0559 42.6279 103.858 55.0097 125.159 65.817C146.634 76.7068 166.786 89.6463 186.586 103.271C195.588 109.461 202.52 111.914 212.678 109.301C220.572 107.274 227.415 103.099 235.291 101.032C246.363 98.1287 254.436 100.853 264.456 107.463C276.978 115.715 289.403 124.132 302.071 132.181C323.732 145.946 349.22 162.186 374.756 165.611C407.175 169.958 435.169 150.961 467.898 156.253" stroke="url(#paint23_linear_1771_24640)" stroke-opacity="0.25" stroke-width="2" stroke-miterlimit="10"/>
<path d="M-79.7764 28.2368C-55.9236 34.6364 -35.4046 53.1966 -10.3721 53.4731C12.4718 53.7242 31.8165 42.3691 54.2835 41.19C77.7511 39.9624 103.923 52.2878 125.331 62.7493C147.077 73.3776 167.355 86.119 186.989 100.199C195.811 106.528 202.759 109.157 212.871 106.501C220.609 104.467 227.262 100.245 234.993 98.1746C246.034 95.2166 254.201 98.1168 264.069 104.89C276.523 113.436 289.042 121.914 301.869 129.912C323.628 143.477 349.491 159.335 374.919 162.772C407.41 167.168 435.483 148.052 468.285 153.389" stroke="url(#paint24_linear_1771_24640)" stroke-opacity="0.25" stroke-width="2" stroke-miterlimit="10"/>
<path d="M-79.3816 25.4509C-55.394 31.7842 -35.0511 50.455 -9.86345 50.7168C12.9038 50.9544 32.1437 39.5895 54.5374 38.4296C77.9793 37.2175 104.255 49.6963 125.687 60.0442C147.527 70.5902 167.744 83.2565 187.4 97.3841C196.188 103.705 203.253 106.217 213.296 103.578C220.981 101.558 227.59 97.3756 235.277 95.3451C246.274 92.442 254.597 95.349 264.349 102.225C276.72 110.946 289.248 119.47 302.14 127.432C323.809 140.819 350.041 156.649 375.287 159.955C407.75 164.211 435.926 145.55 468.678 150.614" stroke="url(#paint25_linear_1771_24640)" stroke-opacity="0.25" stroke-width="2" stroke-miterlimit="10"/>
<path d="M-78.9971 22.7092C-54.9543 29.012 -34.6848 47.7593 -9.43134 47.9713C13.3073 48.1593 32.6171 36.9436 55.0208 35.8254C78.4569 34.655 104.634 47.3953 126.027 57.7707C147.79 68.3276 167.918 80.9594 187.78 94.6768C206.58 107.66 218.253 96.9616 235.802 92.6355C246.773 89.9307 255.156 92.7944 264.81 99.6656C277.117 108.426 289.624 116.93 302.52 124.837C324.075 138.05 350.659 154.007 375.754 157.07C408.118 161.017 436.462 143.415 469.068 147.916" stroke="url(#paint26_linear_1771_24640)" stroke-opacity="0.25" stroke-width="2" stroke-miterlimit="10"/>
<path d="M-78.6177 20.0093C-54.4987 26.3006 -34.2965 45.1373 -8.96437 45.3202C13.782 45.4811 33.1382 34.4415 55.5457 33.3814C78.9751 32.2601 105.037 45.2333 126.393 55.6176C148.069 66.1585 168.122 78.7371 188.166 92.0327C206.872 104.444 218.868 94.0568 236.378 90.0989C247.319 87.6141 255.782 90.4671 265.344 97.3249C277.585 106.103 290.06 114.556 302.964 122.378C324.45 135.407 351.326 151.326 376.239 154.168C408.475 157.848 436.988 141.331 469.42 145.325" stroke="url(#paint27_linear_1771_24640)" stroke-opacity="0.25" stroke-width="2" stroke-miterlimit="10"/>
<path d="M-78.2455 17.3583C-54.0398 23.6481 -33.8871 42.5879 -8.46034 42.7676C14.2584 42.9294 33.694 32.084 56.108 31.0903C79.5231 30.0735 105.474 43.1975 126.787 53.5757C148.359 64.0745 168.375 76.5833 188.56 89.4296C207.197 101.282 219.504 91.2575 237.007 87.6684C247.941 85.4303 256.469 88.2981 265.955 95.1345C278.123 103.906 290.58 112.291 303.476 119.996C324.931 132.823 352.01 148.549 376.775 151.209C408.882 154.661 437.543 139.261 469.788 142.791" stroke="url(#paint28_linear_1771_24640)" stroke-opacity="0.25" stroke-width="2" stroke-miterlimit="10"/>
<path d="M-77.879 14.7531C-53.5696 21.0596 -33.4737 40.0978 -7.92075 40.3028C14.7751 40.4881 34.2944 29.8341 56.7112 28.9635C80.1038 28.0529 105.896 41.3022 127.204 51.6619C148.659 62.0976 168.621 74.5116 188.959 86.8967C207.519 98.1999 220.154 88.5881 237.678 85.4134C248.612 83.4304 257.205 86.3453 266.628 93.1533C278.691 101.931 291.178 110.143 304.036 117.752C325.501 130.362 352.707 145.764 377.349 148.26C409.272 151.512 438.102 137.257 470.117 140.372" stroke="url(#paint29_linear_1771_24640)" stroke-opacity="0.25" stroke-width="2" stroke-miterlimit="10"/>
<path d="M-77.5159 12.1968C-53.096 18.5285 -33.0245 37.6871 -7.35057 37.9268C15.321 38.1461 34.9315 27.7144 57.3587 26.9681C80.7211 26.1909 106.387 39.5268 127.657 49.852C149.001 60.2053 168.92 72.5017 189.376 84.4102C207.861 95.1748 220.842 86.0121 238.407 83.2818C249.354 81.5791 258.004 84.5607 267.373 91.3345C279.363 100.057 291.816 108.16 304.665 115.601C326.174 127.981 353.443 142.897 377.967 145.283C409.704 148.371 438.679 135.289 470.464 138.024" stroke="url(#paint30_linear_1771_24640)" stroke-opacity="0.25" stroke-width="2" stroke-miterlimit="10"/>
<path d="M-77.1646 9.69605C-52.6194 16.0594 -32.5685 35.3394 -6.75939 35.653C15.8888 35.9278 35.5962 25.7343 58.0123 25.1257C81.3432 24.4922 106.856 37.8827 128.113 48.1589C149.305 58.3909 169.233 70.5672 189.78 81.9823C208.196 92.2168 221.541 83.5508 239.159 81.2893C250.124 79.8818 258.833 82.9524 268.161 89.7097C280.071 98.3563 292.481 106.332 305.31 113.585C326.895 125.704 354.153 140.039 378.585 142.329C410.116 145.287 439.221 133.396 470.761 135.798" stroke="url(#paint31_linear_1771_24640)" stroke-opacity="0.25" stroke-width="2" stroke-miterlimit="10"/>
<path d="M-76.8198 7.24375C-52.1399 13.6561 -32.0886 33.0759 -6.13866 33.4505C16.4828 33.8057 36.2886 23.8681 58.7069 23.415C81.9995 22.9454 107.36 36.3554 128.576 46.5604C149.626 56.6884 169.554 68.6917 190.177 79.6068C208.528 89.3162 222.256 81.1795 239.935 79.4139C250.923 78.3275 259.689 81.4941 268.992 88.2062C280.828 96.7655 293.201 104.595 306.018 111.636C327.712 123.503 354.902 137.137 379.253 139.35C410.569 142.187 439.788 131.526 471.072 133.623" stroke="url(#paint32_linear_1771_24640)" stroke-opacity="0.25" stroke-width="2" stroke-miterlimit="10"/>
<path d="M-76.4827 4.84705C-51.6571 11.3139 -31.6288 30.8728 -5.50229 31.3632C17.0943 31.7846 37.0085 22.1162 59.4229 21.8343C82.6748 21.5463 107.868 34.9429 129.063 45.0751C149.973 55.0741 169.907 66.8919 190.581 77.2938C208.868 86.5028 223.002 78.9192 240.748 77.6685C251.767 76.8951 260.585 80.1996 269.874 86.8367C281.634 95.2894 293.966 102.956 306.761 109.77C328.584 121.351 355.648 134.19 379.936 136.349C411.024 139.134 440.339 129.685 471.362 131.513" stroke="url(#paint33_linear_1771_24640)" stroke-opacity="0.25" stroke-width="2" stroke-miterlimit="10"/>
<path d="M-76.1533 2.50997C-51.1754 9.04049 -31.1435 28.744 -4.86703 29.344C17.7262 29.876 37.7486 20.4769 60.1647 20.3827C83.3666 20.2878 108.378 33.6391 129.583 43.6948C150.348 53.5488 170.294 65.1614 191.016 75.0451C209.24 83.7406 223.801 76.7579 241.619 76.0484C252.67 75.6094 261.536 79.0504 270.821 85.6649C282.503 93.999 294.792 101.487 307.563 108.052C329.519 119.325 356.41 131.304 380.65 133.413C411.501 136.119 440.893 127.946 471.65 129.533" stroke="url(#paint34_linear_1771_24640)" stroke-opacity="0.25" stroke-width="2" stroke-miterlimit="10"/>
<path d="M-75.8327 0.242212C-50.702 6.83293 -30.6626 26.6819 -4.17348 27.4206C18.3715 28.0459 38.5062 18.9453 60.9225 19.0491C84.0694 19.1537 108.904 32.4471 130.073 42.3898C150.698 52.0899 170.661 63.4723 191.407 72.8369C209.577 81.0417 224.593 74.6625 242.47 74.517C253.554 74.4194 262.473 78.006 271.767 84.5899C283.37 92.7926 295.614 100.088 308.354 106.388C330.507 117.342 357.177 128.359 381.378 130.466C411.991 133.142 441.432 126.231 471.924 127.604" stroke="url(#paint35_linear_1771_24640)" stroke-opacity="0.25" stroke-width="2" stroke-miterlimit="10"/>
<path d="M-75.519 -1.98714C-50.2123 4.69441 -30.1506 24.6958 -3.49201 25.5734C19.0324 26.3201 39.2906 17.5211 61.6944 17.8306C84.7915 18.1542 109.437 31.3609 130.587 41.2132C151.07 50.7546 171.051 61.8826 191.81 70.7253C209.931 78.4586 225.417 72.7153 243.349 73.1466C254.466 73.4021 263.432 77.1648 272.749 83.6927C284.275 91.7533 296.474 98.8433 309.179 104.865C331.524 115.475 357.94 125.488 382.111 127.584C412.485 130.224 441.951 124.621 472.179 125.803" stroke="url(#paint36_linear_1771_24640)" stroke-opacity="0.25" stroke-width="2" stroke-miterlimit="10"/>
<path d="M-75.2144 -4.14336C-49.7311 2.62509 -29.6509 22.778 -2.7906 23.8171C19.6975 24.6851 40.0663 16.1954 62.479 16.7257C85.5146 17.2691 109.969 30.3784 131.099 40.1144C151.448 49.489 171.44 60.3425 192.2 68.6605C210.29 75.9082 226.253 70.8353 244.244 71.8266C255.391 72.4411 264.4 76.382 273.756 82.8799C285.204 90.7877 297.357 97.6591 310.023 103.385C332.56 113.623 358.697 122.583 382.855 124.691C412.989 127.326 442.457 123.025 472.43 124.034" stroke="url(#paint37_linear_1771_24640)" stroke-opacity="0.25" stroke-width="2" stroke-miterlimit="10"/>
<path d="M-74.9192 -6.23287C-49.2636 0.625544 -29.1459 20.9343 -2.09998 22.1379C20.3737 23.1392 40.8598 14.9674 63.269 15.7237C86.2409 16.5006 110.504 29.4902 131.634 39.1118C151.852 48.32 171.854 58.8734 192.616 66.6702C210.686 73.4536 227.137 69.06 245.178 70.6377C256.357 71.612 265.407 75.7424 274.809 82.1857C286.181 89.9394 298.288 96.5885 310.91 102.014C333.663 111.858 359.483 119.724 383.63 121.855C413.495 124.483 442.952 121.509 472.668 122.363" stroke="url(#paint38_linear_1771_24640)" stroke-opacity="0.25" stroke-width="2" stroke-miterlimit="10"/>
<path d="M-74.6335 -8.25599C-48.7983 -1.30342 -28.6408 19.1441 -1.39802 20.544C21.0565 21.6842 41.66 13.8308 64.0642 14.8234C86.9707 15.8476 111.039 28.6998 132.16 38.1965C152.256 47.2332 172.263 57.4677 193.002 64.7415C211.067 71.0781 228.001 67.3733 246.079 69.5347C257.279 70.8736 266.375 75.2012 275.823 81.6012C287.121 89.1911 299.181 95.6078 311.755 100.718C334.718 110.143 360.216 116.897 384.36 119.053C414.002 121.701 443.391 120.053 472.868 120.766" stroke="url(#paint39_linear_1771_24640)" stroke-opacity="0.25" stroke-width="2" stroke-miterlimit="10"/>
<path d="M-74.3576 -10.2064C-48.3392 -3.15778 -28.1385 17.4611 -0.699159 19.0319C21.7324 20.3107 42.4632 12.7885 64.8601 14.0341C87.695 15.2936 111.565 28.0179 132.699 37.3882C152.676 46.2644 172.684 56.1509 193.404 62.9064C211.494 68.8062 228.893 65.7975 247.031 68.5512C258.262 70.2569 267.371 74.7852 276.922 81.1514C288.147 88.5754 300.161 94.7537 312.682 99.5423C365.231 119.915 419.701 118.228 473.127 119.282" stroke="url(#paint40_linear_1771_24640)" stroke-opacity="0.25" stroke-width="2" stroke-miterlimit="10"/>
<path d="M-74.0901 -12.0945C-47.8857 -4.94218 -27.6389 15.8274 0.00167538 17.5915C22.4089 19.0192 43.2664 11.8318 65.6598 13.3033C88.4192 14.7972 112.095 27.3871 133.201 36.6183C153.08 45.3247 173.072 54.862 193.767 61.0873C211.912 66.5572 229.746 64.2695 247.943 67.598C259.192 69.6635 268.352 74.4157 277.968 80.735C289.067 88.0623 301.124 93.8713 313.553 98.3996C364.92 117.115 421.196 116.998 473.314 117.829" stroke="url(#paint41_linear_1771_24640)" stroke-opacity="0.25" stroke-width="2" stroke-miterlimit="10"/>
<path d="M-73.8334 -13.9057C-47.4429 -6.64963 -27.1464 14.2721 0.691253 16.2315C23.0873 17.7974 44.0623 10.9562 66.4458 12.6701C89.136 14.4109 112.612 26.8578 133.714 35.9409C153.504 44.4685 173.471 53.6482 194.136 59.3771C212.373 64.4332 230.607 62.8377 248.862 66.7653C260.128 69.1907 269.321 74.1589 279.024 80.448C290.068 87.6042 302.076 93.1399 314.44 97.3508C337.993 105.372 362.533 108.725 386.671 111.005C415.634 113.739 444.69 116.118 473.511 116.454" stroke="url(#paint42_linear_1771_24640)" stroke-opacity="0.25" stroke-width="2" stroke-miterlimit="10"/>
<path d="M-73.586 -15.6434C-47.235 -8.35688 -26.9727 12.5854 0.787894 14.9054C23.0547 16.7541 44.0074 10.361 66.2224 12.0434C88.6745 13.7441 111.698 25.8006 132.631 34.6866C152.87 43.263 173.316 52.3502 194.499 57.7412C213.303 62.5278 232.415 61.4489 251.159 66.3653C262.472 69.3336 271.478 74.8989 281.375 81.0562C291.656 87.4524 302.772 92.3095 314.181 96.0113C338.464 103.89 363.315 106.124 388.049 108.526C416.599 111.299 445.284 114.966 473.705 115.193" stroke="url(#paint43_linear_1771_24640)" stroke-opacity="0.25" stroke-width="2" stroke-miterlimit="10"/>
<path d="M-73.3542 -17.3047C-46.8285 -9.91706 -26.493 11.1786 1.44882 13.6944C23.6983 15.6976 44.7641 9.62496 66.9803 11.5558C89.3536 13.5153 112.199 25.434 133.12 34.184C153.275 42.619 173.687 51.3576 194.834 56.1864C213.814 60.5206 233.237 60.2352 252.061 65.738C263.345 69.0341 272.403 74.8126 282.392 80.9081C292.619 87.1484 303.692 91.7511 315.039 95.1623C339.478 102.508 364.053 103.579 388.771 106.067C417.121 108.92 445.624 113.887 473.862 113.992" stroke="url(#paint44_linear_1771_24640)" stroke-opacity="0.25" stroke-width="2" stroke-miterlimit="10"/>
<path d="M-73.1283 -18.8859C-46.4089 -11.3932 -26.0454 9.84197 2.10865 12.5571C24.3466 14.7015 45.5239 8.96005 67.738 11.1349C90.0345 13.3103 112.699 25.1412 133.626 33.7629C153.686 42.0364 174.067 50.4009 195.173 54.6955C214.354 58.5971 234.052 59.0831 252.961 65.1664C264.216 68.7894 273.324 74.7776 283.392 80.8088C293.547 86.8918 304.599 91.2457 315.876 94.3636C340.456 101.167 364.779 101.102 389.478 103.671C417.638 106.6 445.919 112.864 474.007 112.857" stroke="url(#paint45_linear_1771_24640)" stroke-opacity="0.25" stroke-width="2" stroke-miterlimit="10"/>
<path d="M-72.915 -20.3858C-46.0152 -12.8054 -25.579 8.58667 2.75245 11.4972C24.9755 13.7784 46.2668 8.3506 68.4807 10.7841C90.6946 13.2176 113.18 24.9175 134.068 33.3976C154.096 41.5307 174.425 49.5344 195.487 53.2904C214.901 56.7527 234.83 58.0104 253.825 64.6672C265.061 68.6027 274.209 74.8118 284.388 80.7817C294.566 86.7515 305.508 90.8181 316.715 93.6501C341.373 99.8883 365.524 98.7309 390.185 101.378C418.169 104.382 446.249 111.944 474.166 111.804" stroke="url(#paint46_linear_1771_24640)" stroke-opacity="0.25" stroke-width="2" stroke-miterlimit="10"/>
<path d="M-72.7151 -21.8077C-45.6383 -14.1144 -25.1356 7.39305 3.37197 10.5089C25.5882 12.9252 46.9826 7.83376 69.1972 10.4907C91.319 13.137 113.665 24.7615 134.532 33.1113C154.516 41.1047 174.778 48.7408 195.806 51.9712C215.477 54.993 235.6 57.0103 254.694 64.2323C265.855 68.4561 275.088 74.9008 285.354 80.8076C295.431 86.6033 306.403 90.4534 317.522 93.0038C342.257 98.6805 366.248 96.4653 390.864 99.1815C418.706 102.253 446.538 111.1 474.302 110.821" stroke="url(#paint47_linear_1771_24640)" stroke-opacity="0.25" stroke-width="2" stroke-miterlimit="10"/>
<path d="M-72.5279 -23.1419C-45.2749 -15.3583 -24.7224 6.3013 3.96981 9.58838C26.1788 12.1433 47.6819 7.34653 69.8887 10.2603C91.9546 13.142 114.075 24.6649 134.962 32.8932C154.923 40.7446 175.127 48.0293 196.101 50.7371C216.049 53.3148 236.333 56.0846 255.534 63.8633C266.653 68.3615 275.941 75.0379 286.297 80.8828C296.341 86.549 307.25 90.1439 318.301 92.4229C343.074 97.5372 366.957 94.3115 391.53 97.0862C419.202 100.213 446.783 110.343 474.439 109.907" stroke="url(#paint48_linear_1771_24640)" stroke-opacity="0.25" stroke-width="2" stroke-miterlimit="10"/>
<path d="M-72.3486 -24.3918C-44.9315 -16.5165 -24.3143 5.27278 4.54532 8.74237C26.7509 11.4079 48.3647 6.94876 70.5556 10.064C92.5461 13.1512 114.481 24.621 135.374 32.7211C155.314 40.4416 175.459 47.3793 196.382 49.5757C216.62 51.7017 237.056 55.2107 256.326 63.5263C267.395 68.3007 276.738 75.2053 287.199 81.0028C297.196 86.5212 308.077 89.8973 319.065 91.9145C343.848 96.4697 367.663 92.2868 392.185 95.1113C419.718 98.2815 447.038 109.683 474.583 109.088" stroke="url(#paint49_linear_1771_24640)" stroke-opacity="0.25" stroke-width="2" stroke-miterlimit="10"/>
<path d="M-72.1841 -25.5547C-44.6213 -17.596 -23.9366 4.33067 5.08901 7.96424C27.2912 10.7403 48.9814 6.58267 71.193 9.91831C93.1156 13.2133 114.885 24.634 135.758 32.6149C155.684 40.239 175.774 46.8111 196.64 48.5056C217.18 50.1761 237.707 54.3958 257.08 63.2418C268.09 68.2731 277.5 75.4085 288.044 81.1454C298 86.5614 308.852 89.6899 319.758 91.4539C344.526 95.4599 368.303 90.3804 392.775 93.2288C420.205 96.4333 447.234 109.091 474.683 108.309" stroke="url(#paint50_linear_1771_24640)" stroke-opacity="0.25" stroke-width="2" stroke-miterlimit="10"/>
<path d="M-72.0332 -26.624C-44.3005 -18.587 -23.57 3.46502 5.59972 7.24998C27.8065 10.135 49.5864 6.26763 71.7927 9.81415C93.6489 13.3061 115.246 24.6877 136.114 32.5665C156.034 40.0885 176.069 46.3175 196.885 47.5225C217.701 48.7271 238.34 53.6486 257.803 63.0044C268.754 68.2697 278.242 75.5814 288.849 81.318C298.713 86.6592 309.615 89.537 320.418 91.0442C345.156 94.5359 368.919 88.6049 393.337 91.4769C420.645 94.6893 447.419 108.601 474.779 107.608" stroke="url(#paint51_linear_1771_24640)" stroke-opacity="0.25" stroke-width="2" stroke-miterlimit="10"/>
<path d="M-71.8739 -27.6158C-43.9937 -19.5093 -23.2292 2.66599 6.09715 6.59807C28.2825 9.58242 50.1488 6.00114 72.3515 9.74431C94.1357 13.4177 115.585 24.7873 136.442 32.5735C156.364 39.9987 176.345 45.9026 197.106 46.6277C218.256 47.3694 238.931 52.9425 258.475 62.7987C269.371 68.285 278.92 75.8047 289.598 81.5114C299.431 86.766 310.305 89.4217 321.024 90.7152C332.721 92.1241 344.345 91.8883 355.84 91.3061C368.244 90.6833 381.236 88.3795 393.864 89.8682C421.078 93.0735 447.585 108.219 474.867 106.992" stroke="url(#paint52_linear_1771_24640)" stroke-opacity="0.25" stroke-width="2" stroke-miterlimit="10"/>
<path d="M-71.7541 -28.4875C-43.7405 -20.3216 -22.949 1.97117 6.53252 6.03183C28.724 9.08593 50.6729 5.76094 72.8759 9.70213C94.6014 13.5449 115.885 24.9162 136.733 32.6253C156.664 39.9878 176.607 45.5667 197.31 45.8255C218.757 46.0922 239.487 52.296 259.117 62.6392C269.932 68.3444 279.548 76.0411 290.289 81.7152C300.089 86.8906 310.939 89.347 321.582 90.4251C333.285 91.6162 344.878 91.1217 356.336 90.3259C368.682 89.4706 381.729 86.906 394.355 88.3837C421.486 91.5624 447.735 107.926 474.948 106.428" stroke="url(#paint53_linear_1771_24640)" stroke-opacity="0.25" stroke-width="2" stroke-miterlimit="10"/>
<path d="M-71.6448 -29.2786C-43.5056 -21.0557 -22.6671 1.35264 6.92958 5.51857C29.1276 8.63898 51.1383 5.5792 73.3426 9.68267C95.0154 13.686 116.14 25.0968 136.983 32.7289C156.926 40.0259 176.835 45.3094 197.48 45.1054C219.239 44.9077 239.986 51.6948 259.701 62.5063C270.447 68.3978 280.116 76.2754 290.919 81.9276C300.686 87.034 311.496 89.3014 322.086 90.1918C333.79 91.1745 345.358 90.4363 356.783 89.4464C369.075 88.3814 382.171 85.5832 394.799 87.0398C421.848 90.1603 447.864 107.732 475.027 105.946" stroke="url(#paint54_linear_1771_24640)" stroke-opacity="0.25" stroke-width="2" stroke-miterlimit="10"/>
<path d="M-71.5499 -29.9727C-43.2964 -21.7232 -22.4323 0.812975 7.2819 5.067C29.4994 8.24552 51.587 5.42656 73.7931 9.68839C95.422 13.8367 116.397 25.3099 137.224 32.8808C157.182 40.1315 177.071 45.1369 197.649 44.4972C219.699 43.812 240.428 51.134 260.232 62.383C270.914 68.4573 280.632 76.4938 291.484 82.1285C301.223 87.182 312.015 89.287 322.528 89.9977C334.243 90.789 345.779 89.8278 357.178 88.6592C369.43 87.3983 382.559 84.4099 395.207 85.8385C422.211 88.8845 447.995 107.636 475.085 105.517" stroke="url(#paint55_linear_1771_24640)" stroke-opacity="0.25" stroke-width="2" stroke-miterlimit="10"/>
<path d="M-71.4677 -30.565C-43.1038 -22.2902 -22.2316 0.359163 7.58775 4.6767C29.8076 7.89574 51.9626 5.30026 74.1709 9.68866C95.758 13.9671 116.572 25.5227 137.405 33.0553C157.378 40.2771 177.262 45.0335 197.782 43.9666C220.125 42.8021 240.8 50.6009 260.701 62.2892C271.31 68.523 281.071 76.702 291.968 82.3256C301.681 87.3407 312.438 89.301 322.898 89.8559C334.621 90.4729 346.133 89.3118 357.507 87.9796C369.728 86.5461 382.867 83.4054 395.554 84.8035C422.515 87.7423 448.102 107.661 475.139 105.163" stroke="url(#paint56_linear_1771_24640)" stroke-opacity="0.25" stroke-width="2" stroke-miterlimit="10"/>
<path d="M-71.3997 -31.0602C-43.1729 -22.8168 -22.3807 -0.185614 7.248 4.26104C30.6566 7.77635 54.1538 4.87679 77.5055 10.3778C97.4734 15.0813 116.7 25.6741 136.086 32.7684C156.683 40.3049 176.771 44.8129 197.891 43.5709C221.309 42.2095 241.943 50.4485 262.589 63.1407C271.845 68.828 280.466 75.672 289.824 81.1564C299.727 86.959 311.165 89.2255 322.103 89.7569C334.514 90.3616 346.676 88.8969 358.677 87.3229C370.776 85.7208 383.839 82.5592 396.45 84.0011C423.114 87.0661 448.436 107.776 475.174 104.879" stroke="url(#paint57_linear_1771_24640)" stroke-opacity="0.25" stroke-width="2" stroke-miterlimit="10"/>
<path d="M-71.346 -31.45C-43.0396 -23.2138 -22.2594 -0.466881 7.4498 3.9946C30.8665 7.50822 54.4406 4.82012 77.7712 10.4176C97.7115 15.2044 116.813 25.9411 136.187 33.0363C156.798 40.5831 176.908 44.8948 197.983 43.247C221.705 41.387 242.174 50.0013 262.947 63.1148C272.139 68.9172 280.781 75.8091 290.166 81.3029C300.045 87.1038 311.443 89.2893 322.335 89.6984C334.757 90.1658 346.898 88.5125 358.88 86.8193C370.978 85.1096 384.046 81.8809 396.697 83.2596C423.329 86.1847 448.533 107.986 475.211 104.64" stroke="url(#paint58_linear_1771_24640)" stroke-opacity="0.25" stroke-width="2" stroke-miterlimit="10"/>
<path d="M-71.3084 -31.7292C-42.9411 -23.5079 -22.1943 -0.660786 7.59964 3.7846C31.0269 7.27885 54.6275 4.76945 77.9771 10.4573C97.9007 15.3087 116.879 26.2219 136.243 33.3369C156.861 40.9212 177.025 45.0691 198.022 43.0147C222.039 40.6686 242.296 49.5657 263.208 63.0629C272.363 68.9682 281.021 75.9143 290.408 81.4481C300.278 87.2645 311.58 89.3964 322.477 89.7095C347.655 90.4257 371.712 80.1608 396.879 82.7293C423.493 85.4453 448.624 108.312 475.233 104.476" stroke="url(#paint59_linear_1771_24640)" stroke-opacity="0.25" stroke-width="2" stroke-miterlimit="10"/>
<path d="M-71.2833 -31.9064C-42.8655 -23.7095 -22.1407 -0.759587 7.69522 3.63767C31.1325 7.08763 54.7887 4.74534 78.1192 10.4865C98.0389 15.3947 116.899 26.5108 136.249 33.6693C156.869 41.297 177.119 45.3314 198.052 42.8921C222.343 40.0591 242.335 49.1432 263.409 63.0303C272.474 68.9939 281.13 76.1298 290.557 81.5397C300.57 87.2811 311.512 89.4997 322.536 89.7445C347.779 90.3029 371.716 79.9965 397.001 82.3621C423.612 84.8435 448.722 108.752 475.232 104.368" stroke="url(#paint60_linear_1771_24640)" stroke-opacity="0.25" stroke-width="2" stroke-miterlimit="10"/>
<path d="M-71.2744 -31.9734C-42.8195 -23.8181 -22.1509 -0.77321 7.72744 3.54363C31.1734 6.93077 54.8427 4.72107 78.2146 10.5041C98.1353 15.4338 116.881 26.8118 136.218 34.0322C156.829 41.7262 177.199 45.6912 198.062 42.8725C222.605 39.5502 242.286 48.7253 263.527 62.9953C282.933 76.0271 298.561 89.3858 322.507 89.8131C347.831 90.264 371.648 80.0632 397.056 82.1838C423.672 84.4039 448.795 109.296 475.265 104.357" stroke="url(#paint61_linear_1771_24640)" stroke-opacity="0.25" stroke-width="2" stroke-miterlimit="10"/>
<defs>
<linearGradient id="paint0_linear_1771_24640" x1="134.211" y1="156.714" x2="375.755" y2="189.923" gradientUnits="userSpaceOnUse">
<stop stop-color="#00F0FF"/>
<stop offset="0.489583" stop-color="#4C02E1"/>
</linearGradient>
<linearGradient id="paint1_linear_1771_24640" x1="135.185" y1="149.662" x2="376.735" y2="182.872" gradientUnits="userSpaceOnUse">
<stop stop-color="#00F0FF"/>
<stop offset="0.489583" stop-color="#4C02E1"/>
</linearGradient>
<linearGradient id="paint2_linear_1771_24640" x1="136.138" y1="142.824" x2="377.681" y2="176.034" gradientUnits="userSpaceOnUse">
<stop stop-color="#00F0FF"/>
<stop offset="0.489583" stop-color="#4C02E1"/>
</linearGradient>
<linearGradient id="paint3_linear_1771_24640" x1="137.109" y1="135.822" x2="378.657" y2="169.032" gradientUnits="userSpaceOnUse">
<stop stop-color="#00F0FF"/>
<stop offset="0.489583" stop-color="#4C02E1"/>
</linearGradient>
<linearGradient id="paint4_linear_1771_24640" x1="137.956" y1="129.692" x2="379.504" y2="162.902" gradientUnits="userSpaceOnUse">
<stop stop-color="#00F0FF"/>
<stop offset="0.489583" stop-color="#4C02E1"/>
</linearGradient>
<linearGradient id="paint5_linear_1771_24640" x1="138.729" y1="124.104" x2="380.277" y2="157.314" gradientUnits="userSpaceOnUse">
<stop stop-color="#00F0FF"/>
<stop offset="0.489583" stop-color="#4C02E1"/>
</linearGradient>
<linearGradient id="paint6_linear_1771_24640" x1="139.42" y1="119.18" x2="380.974" y2="152.391" gradientUnits="userSpaceOnUse">
<stop stop-color="#00F0FF"/>
<stop offset="0.489583" stop-color="#4C02E1"/>
</linearGradient>
<linearGradient id="paint7_linear_1771_24640" x1="140.071" y1="114.428" x2="381.619" y2="147.638" gradientUnits="userSpaceOnUse">
<stop stop-color="#00F0FF"/>
<stop offset="0.489583" stop-color="#4C02E1"/>
</linearGradient>
<linearGradient id="paint8_linear_1771_24640" x1="140.725" y1="109.662" x2="382.268" y2="142.872" gradientUnits="userSpaceOnUse">
<stop stop-color="#00F0FF"/>
<stop offset="0.489583" stop-color="#4C02E1"/>
</linearGradient>
<linearGradient id="paint9_linear_1771_24640" x1="141.327" y1="105.357" x2="382.872" y2="138.567" gradientUnits="userSpaceOnUse">
<stop stop-color="#00F0FF"/>
<stop offset="0.489583" stop-color="#4C02E1"/>
</linearGradient>
<linearGradient id="paint10_linear_1771_24640" x1="141.881" y1="101.442" x2="383.434" y2="134.653" gradientUnits="userSpaceOnUse">
<stop stop-color="#00F0FF"/>
<stop offset="0.489583" stop-color="#4C02E1"/>
</linearGradient>
<linearGradient id="paint11_linear_1771_24640" x1="142.367" y1="97.8983" x2="383.915" y2="131.108" gradientUnits="userSpaceOnUse">
<stop stop-color="#00F0FF"/>
<stop offset="0.489583" stop-color="#4C02E1"/>
</linearGradient>
<linearGradient id="paint12_linear_1771_24640" x1="142.815" y1="94.6952" x2="384.363" y2="127.905" gradientUnits="userSpaceOnUse">
<stop stop-color="#00F0FF"/>
<stop offset="0.489583" stop-color="#4C02E1"/>
</linearGradient>
<linearGradient id="paint13_linear_1771_24640" x1="143.181" y1="92.1003" x2="384.731" y2="125.311" gradientUnits="userSpaceOnUse">
<stop stop-color="#00F0FF"/>
<stop offset="0.489583" stop-color="#4C02E1"/>
</linearGradient>
<linearGradient id="paint14_linear_1771_24640" x1="143.574" y1="89.3125" x2="385.125" y2="122.523" gradientUnits="userSpaceOnUse">
<stop stop-color="#00F0FF"/>
<stop offset="0.489583" stop-color="#4C02E1"/>
</linearGradient>
<linearGradient id="paint15_linear_1771_24640" x1="143.93" y1="86.7184" x2="385.471" y2="119.928" gradientUnits="userSpaceOnUse">
<stop stop-color="#00F0FF"/>
<stop offset="0.489583" stop-color="#4C02E1"/>
</linearGradient>
<linearGradient id="paint16_linear_1771_24640" x1="144.278" y1="84.2813" x2="385.826" y2="117.491" gradientUnits="userSpaceOnUse">
<stop stop-color="#00F0FF"/>
<stop offset="0.489583" stop-color="#4C02E1"/>
</linearGradient>
<linearGradient id="paint17_linear_1771_24640" x1="144.613" y1="81.9528" x2="386.168" y2="115.164" gradientUnits="userSpaceOnUse">
<stop stop-color="#00F0FF"/>
<stop offset="0.489583" stop-color="#4C02E1"/>
</linearGradient>
<linearGradient id="paint18_linear_1771_24640" x1="144.923" y1="79.6872" x2="386.467" y2="112.897" gradientUnits="userSpaceOnUse">
<stop stop-color="#00F0FF"/>
<stop offset="0.489583" stop-color="#4C02E1"/>
</linearGradient>
<linearGradient id="paint19_linear_1771_24640" x1="145.205" y1="77.7182" x2="386.752" y2="110.928" gradientUnits="userSpaceOnUse">
<stop stop-color="#00F0FF"/>
<stop offset="0.489583" stop-color="#4C02E1"/>
</linearGradient>
<linearGradient id="paint20_linear_1771_24640" x1="145.508" y1="75.5229" x2="387.049" y2="108.732" gradientUnits="userSpaceOnUse">
<stop stop-color="#00F0FF"/>
<stop offset="0.489583" stop-color="#4C02E1"/>
</linearGradient>
<linearGradient id="paint21_linear_1771_24640" x1="145.825" y1="73.2849" x2="387.367" y2="106.494" gradientUnits="userSpaceOnUse">
<stop stop-color="#00F0FF"/>
<stop offset="0.489583" stop-color="#4C02E1"/>
</linearGradient>
<linearGradient id="paint22_linear_1771_24640" x1="146.15" y1="70.9722" x2="387.691" y2="104.181" gradientUnits="userSpaceOnUse">
<stop stop-color="#00F0FF"/>
<stop offset="0.489583" stop-color="#4C02E1"/>
</linearGradient>
<linearGradient id="paint23_linear_1771_24640" x1="146.501" y1="68.5591" x2="388.056" y2="101.77" gradientUnits="userSpaceOnUse">
<stop stop-color="#00F0FF"/>
<stop offset="0.489583" stop-color="#4C02E1"/>
</linearGradient>
<linearGradient id="paint24_linear_1771_24640" x1="146.86" y1="65.9651" x2="388.408" y2="99.1751" gradientUnits="userSpaceOnUse">
<stop stop-color="#00F0FF"/>
<stop offset="0.489583" stop-color="#4C02E1"/>
</linearGradient>
<linearGradient id="paint25_linear_1771_24640" x1="147.243" y1="63.2618" x2="388.791" y2="96.4718" gradientUnits="userSpaceOnUse">
<stop stop-color="#00F0FF"/>
<stop offset="0.489583" stop-color="#4C02E1"/>
</linearGradient>
<linearGradient id="paint26_linear_1771_24640" x1="147.61" y1="60.6818" x2="389.163" y2="93.8924" gradientUnits="userSpaceOnUse">
<stop stop-color="#00F0FF"/>
<stop offset="0.489583" stop-color="#4C02E1"/>
</linearGradient>
<linearGradient id="paint27_linear_1771_24640" x1="147.952" y1="58.2218" x2="389.499" y2="91.4317" gradientUnits="userSpaceOnUse">
<stop stop-color="#00F0FF"/>
<stop offset="0.489583" stop-color="#4C02E1"/>
</linearGradient>
<linearGradient id="paint28_linear_1771_24640" x1="148.285" y1="55.8921" x2="389.837" y2="89.1028" gradientUnits="userSpaceOnUse">
<stop stop-color="#00F0FF"/>
<stop offset="0.489583" stop-color="#4C02E1"/>
</linearGradient>
<linearGradient id="paint29_linear_1771_24640" x1="148.591" y1="53.6898" x2="390.138" y2="86.8997" gradientUnits="userSpaceOnUse">
<stop stop-color="#00F0FF"/>
<stop offset="0.489583" stop-color="#4C02E1"/>
</linearGradient>
<linearGradient id="paint30_linear_1771_24640" x1="148.896" y1="51.5939" x2="390.448" y2="84.8045" gradientUnits="userSpaceOnUse">
<stop stop-color="#00F0FF"/>
<stop offset="0.489583" stop-color="#4C02E1"/>
</linearGradient>
<linearGradient id="paint31_linear_1771_24640" x1="149.167" y1="49.6262" x2="390.713" y2="82.8359" gradientUnits="userSpaceOnUse">
<stop stop-color="#00F0FF"/>
<stop offset="0.489583" stop-color="#4C02E1"/>
</linearGradient>
<linearGradient id="paint32_linear_1771_24640" x1="149.432" y1="47.7648" x2="390.98" y2="80.9747" gradientUnits="userSpaceOnUse">
<stop stop-color="#00F0FF"/>
<stop offset="0.489583" stop-color="#4C02E1"/>
</linearGradient>
<linearGradient id="paint33_linear_1771_24640" x1="149.678" y1="46.0097" x2="391.222" y2="79.2191" gradientUnits="userSpaceOnUse">
<stop stop-color="#00F0FF"/>
<stop offset="0.489583" stop-color="#4C02E1"/>
</linearGradient>
<linearGradient id="paint34_linear_1771_24640" x1="149.915" y1="44.3711" x2="391.462" y2="77.581" gradientUnits="userSpaceOnUse">
<stop stop-color="#00F0FF"/>
<stop offset="0.489583" stop-color="#4C02E1"/>
</linearGradient>
<linearGradient id="paint35_linear_1771_24640" x1="150.136" y1="42.828" x2="391.683" y2="76.0378" gradientUnits="userSpaceOnUse">
<stop stop-color="#00F0FF"/>
<stop offset="0.489583" stop-color="#4C02E1"/>
</linearGradient>
<linearGradient id="paint36_linear_1771_24640" x1="150.34" y1="41.3956" x2="391.887" y2="74.6055" gradientUnits="userSpaceOnUse">
<stop stop-color="#00F0FF"/>
<stop offset="0.489583" stop-color="#4C02E1"/>
</linearGradient>
<linearGradient id="paint37_linear_1771_24640" x1="150.532" y1="40.0584" x2="392.079" y2="73.2682" gradientUnits="userSpaceOnUse">
<stop stop-color="#00F0FF"/>
<stop offset="0.489583" stop-color="#4C02E1"/>
</linearGradient>
<linearGradient id="paint38_linear_1771_24640" x1="150.709" y1="38.823" x2="392.257" y2="72.0327" gradientUnits="userSpaceOnUse">
<stop stop-color="#00F0FF"/>
<stop offset="0.489583" stop-color="#4C02E1"/>
</linearGradient>
<linearGradient id="paint39_linear_1771_24640" x1="150.862" y1="37.6891" x2="392.397" y2="70.8972" gradientUnits="userSpaceOnUse">
<stop stop-color="#00F0FF"/>
<stop offset="0.489583" stop-color="#4C02E1"/>
</linearGradient>
<linearGradient id="paint40_linear_1771_24640" x1="151.032" y1="36.6482" x2="392.588" y2="69.8591" gradientUnits="userSpaceOnUse">
<stop stop-color="#00F0FF"/>
<stop offset="0.489583" stop-color="#4C02E1"/>
</linearGradient>
<linearGradient id="paint41_linear_1771_24640" x1="151.157" y1="35.737" x2="392.704" y2="68.9467" gradientUnits="userSpaceOnUse">
<stop stop-color="#00F0FF"/>
<stop offset="0.489583" stop-color="#4C02E1"/>
</linearGradient>
<linearGradient id="paint42_linear_1771_24640" x1="151.28" y1="34.8951" x2="392.828" y2="68.1048" gradientUnits="userSpaceOnUse">
<stop stop-color="#00F0FF"/>
<stop offset="0.489583" stop-color="#4C02E1"/>
</linearGradient>
<linearGradient id="paint43_linear_1771_24640" x1="151.391" y1="34.1886" x2="392.943" y2="67.3989" gradientUnits="userSpaceOnUse">
<stop stop-color="#00F0FF"/>
<stop offset="0.489583" stop-color="#4C02E1"/>
</linearGradient>
<linearGradient id="paint44_linear_1771_24640" x1="151.476" y1="33.5559" x2="393.024" y2="66.7656" gradientUnits="userSpaceOnUse">
<stop stop-color="#00F0FF"/>
<stop offset="0.489583" stop-color="#4C02E1"/>
</linearGradient>
<linearGradient id="paint45_linear_1771_24640" x1="151.555" y1="32.9875" x2="393.094" y2="66.196" gradientUnits="userSpaceOnUse">
<stop stop-color="#00F0FF"/>
<stop offset="0.489583" stop-color="#4C02E1"/>
</linearGradient>
<linearGradient id="paint46_linear_1771_24640" x1="151.63" y1="32.5159" x2="393.173" y2="65.7249" gradientUnits="userSpaceOnUse">
<stop stop-color="#00F0FF"/>
<stop offset="0.489583" stop-color="#4C02E1"/>
</linearGradient>
<linearGradient id="paint47_linear_1771_24640" x1="151.69" y1="32.0993" x2="393.231" y2="65.308" gradientUnits="userSpaceOnUse">
<stop stop-color="#00F0FF"/>
<stop offset="0.489583" stop-color="#4C02E1"/>
</linearGradient>
<linearGradient id="paint48_linear_1771_24640" x1="151.796" y1="31.3772" x2="393.341" y2="64.5864" gradientUnits="userSpaceOnUse">
<stop stop-color="#00F0FF"/>
<stop offset="0.489583" stop-color="#4C02E1"/>
</linearGradient>
<linearGradient id="paint49_linear_1771_24640" x1="151.973" y1="30.2145" x2="393.528" y2="63.4251" gradientUnits="userSpaceOnUse">
<stop stop-color="#00F0FF"/>
<stop offset="0.489583" stop-color="#4C02E1"/>
</linearGradient>
<linearGradient id="paint50_linear_1771_24640" x1="152.121" y1="29.1384" x2="393.67" y2="62.3483" gradientUnits="userSpaceOnUse">
<stop stop-color="#00F0FF"/>
<stop offset="0.489583" stop-color="#4C02E1"/>
</linearGradient>
<linearGradient id="paint51_linear_1771_24640" x1="152.258" y1="28.1581" x2="393.806" y2="61.3678" gradientUnits="userSpaceOnUse">
<stop stop-color="#00F0FF"/>
<stop offset="0.489583" stop-color="#4C02E1"/>
</linearGradient>
<linearGradient id="paint52_linear_1771_24640" x1="152.397" y1="27.2563" x2="393.936" y2="60.4648" gradientUnits="userSpaceOnUse">
<stop stop-color="#00F0FF"/>
<stop offset="0.489583" stop-color="#4C02E1"/>
</linearGradient>
<linearGradient id="paint53_linear_1771_24640" x1="152.507" y1="26.4699" x2="394.048" y2="59.6787" gradientUnits="userSpaceOnUse">
<stop stop-color="#00F0FF"/>
<stop offset="0.489583" stop-color="#4C02E1"/>
</linearGradient>
<linearGradient id="paint54_linear_1771_24640" x1="152.609" y1="25.7629" x2="394.155" y2="58.9724" gradientUnits="userSpaceOnUse">
<stop stop-color="#00F0FF"/>
<stop offset="0.489583" stop-color="#4C02E1"/>
</linearGradient>
<linearGradient id="paint55_linear_1771_24640" x1="152.694" y1="25.1454" x2="394.24" y2="58.3549" gradientUnits="userSpaceOnUse">
<stop stop-color="#00F0FF"/>
<stop offset="0.489583" stop-color="#4C02E1"/>
</linearGradient>
<linearGradient id="paint56_linear_1771_24640" x1="152.768" y1="24.6237" x2="394.315" y2="57.8334" gradientUnits="userSpaceOnUse">
<stop stop-color="#00F0FF"/>
<stop offset="0.489583" stop-color="#4C02E1"/>
</linearGradient>
<linearGradient id="paint57_linear_1771_24640" x1="152.825" y1="24.1954" x2="394.371" y2="57.4049" gradientUnits="userSpaceOnUse">
<stop stop-color="#00F0FF"/>
<stop offset="0.489583" stop-color="#4C02E1"/>
</linearGradient>
<linearGradient id="paint58_linear_1771_24640" x1="152.873" y1="23.8564" x2="394.421" y2="57.0662" gradientUnits="userSpaceOnUse">
<stop stop-color="#00F0FF"/>
<stop offset="0.489583" stop-color="#4C02E1"/>
</linearGradient>
<linearGradient id="paint59_linear_1771_24640" x1="152.905" y1="23.6212" x2="394.452" y2="56.8309" gradientUnits="userSpaceOnUse">
<stop stop-color="#00F0FF"/>
<stop offset="0.489583" stop-color="#4C02E1"/>
</linearGradient>
<linearGradient id="paint60_linear_1771_24640" x1="152.92" y1="23.4693" x2="394.461" y2="56.6782" gradientUnits="userSpaceOnUse">
<stop stop-color="#00F0FF"/>
<stop offset="0.489583" stop-color="#4C02E1"/>
</linearGradient>
<linearGradient id="paint61_linear_1771_24640" x1="152.944" y1="23.3831" x2="394.499" y2="56.5938" gradientUnits="userSpaceOnUse">
<stop stop-color="#00F0FF"/>
<stop offset="0.489583" stop-color="#4C02E1"/>
</linearGradient>
</defs>
</svg>
