<?xml version="1.0" encoding="UTF-8"?>
<!-- Created with Inkscape (http://www.inkscape.org/) -->
<svg width="2.1167mm" height="2.7916mm" version="1.1" viewBox="0 0 2.1167 2.7916" xml:space="preserve" xmlns="http://www.w3.org/2000/svg"><g transform="translate(-160.42 -3410.5)" fill="none"><g transform="matrix(.57802 0 0 .57802 160.22 3411.8)"><path d="m3.8957 0.71648c0.13912 0.12204 0.13912 0.31991 0 0.44194l-1.425 1.25c-0.13913 0.12204-0.36469 0.12204-0.50382 0l-1.425-1.25c-0.13912-0.12203-0.13912-0.3199 0-0.44194 0.13912-0.12204 0.36469-0.12204 0.50382 0l1.1731 1.029 1.1731-1.029c0.13913-0.12204 0.36469-0.12204 0.50382 0z" clip-rule="evenodd" fill="#00d1ff" fill-rule="evenodd"/></g><g transform="matrix(.57802 0 0 .57802 160.17 3410.2)"><path d="m0.54184 2.2834c-0.13912-0.12204-0.13912-0.31991 0-0.44195l1.425-1.25c0.13913-0.12204 0.36469-0.12204 0.50382 0l1.425 1.25c0.13912 0.12204 0.13912 0.31991 0 0.44195-0.13913 0.12203-0.36469 0.12203-0.50382 0l-1.1731-1.029-1.1731 1.029c-0.13913 0.12203-0.36469 0.12203-0.50382 0z" clip-rule="evenodd" fill="#00d1ff" fill-rule="evenodd"/></g></g></svg>
