<?xml version="1.0" encoding="UTF-8"?>
<!-- Generator: Adobe Illustrator 26.0.1, SVG Export Plug-In . SVG Version: 6.00 Build 0)  -->
<svg width="30" height="30" version="1.1" viewBox="0 0 30 30" xml:space="preserve" xmlns="http://www.w3.org/2000/svg">
<style type="text/css">
	.st0{fill-rule:evenodd;clip-rule:evenodd;fill:url(#SVGID_1_);}
	.st1{fill-rule:evenodd;clip-rule:evenodd;fill:#FFFFFF;}
</style>
<linearGradient id="SVGID_1_" x2="100" y1="99.89" y2="-.1102" gradientTransform="matrix(.3 0 0 -.3 0 29.967)" gradientUnits="userSpaceOnUse">
	<stop stop-color="#0077FC" offset="0"/>
	<stop stop-color="#095EB5" offset="1"/>
</linearGradient><g stroke-width=".3">
<path class="st0" d="m30 15c0-1.95-0.39-3.93-1.14-5.73s-1.86-3.48-3.24-4.89c-1.41-1.38-3.06-2.49-4.89-3.24s-3.78-1.14-5.73-1.14-3.93 0.39-5.73 1.14-3.48 1.86-4.89 3.24c-1.38 1.41-2.49 3.06-3.24 4.89s-1.14 3.78-1.14 5.73 0.39 3.93 1.14 5.73 1.86 3.48 3.24 4.89c1.38 1.38 3.06 2.49 4.86 3.24s3.81 1.14 5.76 1.14 3.93-0.39 5.73-1.14 3.48-1.86 4.89-3.24c1.38-1.38 2.49-3.06 3.24-4.86s1.14-3.81 1.14-5.76z" fill="url(#SVGID_1_)"/>
<path class="st1" d="m14.22 8.22h1.56v13.56h-1.56z"/>
<path class="st1" d="m13.35 14.61v-1.62c-1.23-0.6-2.1-1.89-2.1-3.36 0-2.07 1.68-3.75 3.75-3.75 2.34 0 4.02 1.68 4.02 3.75 0 0.51-0.12 1.02-0.36 1.62l-0.66-2.16-1.32 0.42 1.17 4.47 4.56-1.68-0.57-1.32-1.71 0.57c0.3-0.66 0.36-1.17 0.36-1.95 0-2.91-2.34-5.25-5.52-5.25-2.91 0-5.25 2.34-5.25 5.25 0.03 2.34 1.53 4.32 3.63 5.01z"/>
<path class="st1" d="m16.65 15.39v1.62c1.23 0.6 2.1 1.89 2.1 3.36 0 2.07-1.68 3.75-3.75 3.75-2.34 0-4.02-1.68-4.02-3.75 0-0.51 0.12-1.02 0.36-1.62l0.66 2.16 1.32-0.42-1.17-4.47-4.56 1.68 0.57 1.32 1.71-0.57c-0.3 0.66-0.36 1.17-0.36 1.95 0 2.91 2.34 5.25 5.52 5.25 2.91 0 5.25-2.34 5.25-5.25-0.03-2.34-1.53-4.32-3.63-5.01z"/>
</g></svg>
